<?xml version="1.0" encoding="utf-8"?>
<!-- Generator: Adobe Illustrator 24.0.0, SVG Export Plug-In . SVG Version: 6.00 Build 0)  -->
<svg version="1.1" id="Layer_1" xmlns="http://www.w3.org/2000/svg" xmlns:xlink="http://www.w3.org/1999/xlink" x="0px" y="0px"
	 viewBox="0 0 512 512" style="enable-background:new 0 0 512 512;" xml:space="preserve">
<style type="text/css">
	.st0{fill:#FFFFFF;}
	.st1{fill:none;}
	.st2{opacity:0.48;fill:#B8729B;enable-background:new    ;}
	.st3{fill:#73628A;}
	.st4{fill:#73628A;stroke:#B6D45C;stroke-width:0.25;stroke-miterlimit:10;}
	.st5{fill:#8F80A1;}
</style>
<rect x="-0.25" y="-0.25" class="st0" width="512.5" height="512.5"/>
<g>
	<g>
		<path class="st1" d="M379.87,146.01c-3.28,0-6.52,0.16-9.76,0.41c0.16-2.13,0.2-4.31,0.25-6.48C370.6,78.4,320.94,28.29,259.4,28
			c-61.55-0.29-111.66,49.41-111.94,110.96c0,3.85,0.16,7.71,0.53,11.48c-5.37-0.82-10.91-1.27-16.52-1.31
			c-61.55-0.29-111.66,49.41-111.94,110.96s49.41,111.66,110.96,111.9c4.76,0.04,9.43-0.25,14.06-0.82
			c-0.16,2.3-0.25,4.59-0.25,6.89c-0.25,61.55,49.41,111.7,110.96,111.94c61.55,0.29,111.66-49.41,111.94-110.96
			c0-3.69-0.16-7.34-0.49-10.95c3.98,0.45,8.08,0.74,12.18,0.74c61.55,0.29,111.66-49.37,111.94-110.92
			C491.11,196.37,441.42,146.26,379.87,146.01z"/>
	</g>
	<path class="st2" d="M379.87,146.01c-3.28,0-6.52,0.16-9.76,0.41c0.16-2.13,0.2-4.31,0.25-6.48C370.6,78.4,320.94,28.29,259.4,28
		c-61.55-0.29-111.66,49.41-111.94,110.96c0,3.85,0.16,7.71,0.53,11.48c-5.37-0.82-10.91-1.27-16.52-1.31
		c-61.55-0.29-111.66,49.41-111.94,110.96s49.41,111.66,110.96,111.9c4.76,0.04,9.43-0.25,14.06-0.82c-0.16,2.3-0.25,4.59-0.25,6.89
		c-0.25,61.55,49.41,111.7,110.96,111.94c61.55,0.29,111.66-49.41,111.94-110.96c0-3.69-0.16-7.34-0.49-10.95
		c3.98,0.45,8.08,0.74,12.18,0.74c61.55,0.29,111.66-49.37,111.94-110.92C491.11,196.37,441.42,146.26,379.87,146.01z"/>
	<path class="st3" d="M379.87,146.01c-3.28,0-6.52,0.16-9.76,0.41c0.16-2.13,0.2-4.31,0.25-6.48C370.6,78.4,320.94,28.29,259.4,28
		c-61.55-0.29-111.66,49.41-111.94,110.96c0,3.85,0.16,7.71,0.53,11.48c-5.37-0.82-10.91-1.27-16.52-1.31
		c-61.55-0.29-111.66,49.41-111.94,110.96s49.41,111.66,110.96,111.9c4.76,0.04,9.43-0.25,14.06-0.82c-0.16,2.3-0.25,4.59-0.25,6.89
		c-0.25,61.55,49.41,111.7,110.96,111.94c61.55,0.29,111.66-49.41,111.94-110.96c0-3.69-0.16-7.34-0.49-10.95
		c3.98,0.45,8.08,0.74,12.18,0.74c61.55,0.29,111.66-49.37,111.94-110.92C491.11,196.37,441.42,146.26,379.87,146.01z"/>
	<path class="st4" d="M299.21,348.9c0-3.03,4.26-68.11,6.07-72.95c1.8-4.88,23.7-48.02,26.74-48.63
		c3.03-0.62,27.97-10.95,27.97-10.95l34.03-7.91c0,0-7.91-13.37-12.18-15.21c-4.26-1.8-64.46-8.53-69.3-8.53
		c-4.88,0-58.35-0.62-58.35-0.62s-39.53-23.7-39.53-25.55c0-1.85-6.68,10.33-6.68,10.33l-7.91,86.93l-32.23,37.07l-44.37,15.21
		c0,0,13.37,12.18,15.83,13.98c2.46,1.8,56.55,13.37,56.55,13.37s39.53-10.33,41.95-10.33c2.42,0,30.38,6.68,30.38,6.68l15.21,17.02
		h15.83V348.9z"/>
	<g>
		<path class="st0" d="M441.5,234.46c-3.16-7.42-8.16-14.88-14.88-22.51c-6.27-7.05-11.85-11.19-22.22-19.4l0.08,0.12
			c-18.94-12.55-48.8-16.93-48.8-16.93c-14.19-1.44-19.97-1.19-32.23-0.16c-13.37,1.11-26.24,3.36-38.83,4.35
			c-12.59,1.03-22.68,0.62-30.22-1.23c-7.54-1.85-14.23-5.33-20.01-10.42c-5.74-5.08-10.05-10.46-12.88-16.07
			c-2.91-5.66-4.47-11.73-4.8-18.16c-0.29-6.44,1.48-13.45,5.33-20.99c3.77-7.59,8.73-13.29,14.8-17.14
			c6.03-3.9,13.16-5.49,21.32-4.96c8.2,0.57,15.05,2.79,20.54,6.68c5.45,3.9,9.31,8.53,11.52,13.9c2.26,5.37,2.42,10.25,0.57,14.72
			c-1.89,4.47-3.57,7.42-6.64,9.18c-3.08,1.8-6.81,2.3-10.74,1.48c-1.85-0.41-5.45-2.95-4.96-6.03c0.04-0.04,0.12-0.08,0.16-0.12
			c0.66-0.74,1.07-1.64,1.27-2.71c0.45-2.17-1.11-3.28-4.67-3.4c-3.57-0.08-7.13,1.44-10.62,4.55c-3.53,3.08-5.45,7.18-5.82,12.18
			c-0.33,5,1.23,9.64,4.59,13.82c3.36,4.18,7.59,7.22,12.63,9.06c5.04,1.85,10.58,2.54,16.61,2.17c5.95-0.37,11.73-2.34,17.18-5.86
			c5.41-3.49,14.31-10.33,18.08-24.23c2.13-8.57,2.62-16.93,0.12-25.34c-2.42-8.12-5.74-14.39-10.09-18.99
			c-4.72-5-19.15-20.63-49.98-21.24c-9.8-0.2-18.9,1.8-27.39,6.81c-8.49,5-14.84,10.29-19.15,15.99
			c-4.31,5.7-7.91,12.26-10.78,19.68c-2.95,7.46-4.67,16.2-5.25,26.28c-0.57,10.13,0.7,17.26,2.46,32.48
			c8.45,73.4-19.81,100.38-19.81,100.38c-8.53,9.35-15.95,16.32-22.96,19.64c-9.76,4.63-17.34,6.07-24.03,6.81
			c-7.22,0.33-17.22-0.62-23.25-2.58c-6.07-2.01-11.48-5.21-16.32-9.6c-4.76-4.39-8.49-10.62-11.11-18.78
			c-2.67-8.08-3.16-15.66-1.6-22.76c1.56-7.01,5.49-13.24,11.69-18.7c6.27-5.41,12.75-8.69,19.44-9.8
			c6.68-1.07,12.71-0.49,18.08,1.76c5.41,2.26,8.98,5.62,10.87,10.13c1.85,4.51,2.75,7.83,1.76,11.28c-0.94,3.49-3.24,6.48-6.6,8.65
			c-1.6,1.03-5.99,1.76-7.83-0.82c0-0.04,0.04-0.12,0.04-0.16c-0.08-0.98-0.41-1.93-1.03-2.83c-1.19-1.89-3.12-1.6-5.74,0.9
			c-2.62,2.46-4.1,6.07-4.39,10.78c-0.33,4.72,1.19,8.98,4.51,12.83c3.32,3.77,7.71,5.99,13.08,6.64c5.37,0.62,10.54-0.25,15.46-2.5
			c4.88-2.26,9.35-5.7,13.37-10.25c4.02-4.51,6.68-10.01,8.12-16.4c1.39-6.36,2.87-17.55-4.26-30.14
			c-4.55-7.63-10.17-13.98-17.92-18.21c-7.5-4.1-14.31-6.19-20.71-6.4c-6.93-0.2-28.29-1.15-50.76,20.3
			c-7.13,6.81-12.18,14.72-14.72,24.27c-2.5,9.6-3.28,17.88-2.34,25.01c0.94,7.09,3.08,14.35,6.27,21.73
			c3.2,7.38,8.16,14.88,14.93,22.47c6.77,7.63,14.15,14.43,24.77,21.45l0.04-0.04c23.33,12.42,49.45,14.6,49.45,14.6
			c8.86,0.37,19.97,1.19,32.27,0.16c13.37-1.11,26.24-3.36,38.83-4.35c12.59-1.03,22.68-0.62,30.22,1.23
			c7.54,1.85,14.23,5.33,20.01,10.42c5.74,5.08,10.05,10.46,12.92,16.07c2.87,5.66,4.43,11.73,4.76,18.12
			c0.29,6.44-1.44,13.45-5.29,21.04c-3.81,7.59-8.78,13.24-14.8,17.14c-5.99,3.85-13.12,5.49-21.32,5
			c-8.2-0.57-15.05-2.79-20.54-6.72c-5.45-3.94-9.31-8.53-11.52-13.9c-2.26-5.37-2.38-10.25-0.53-14.72
			c1.89-4.47,3.57-7.42,6.64-9.18c3.08-1.76,6.81-2.3,10.74-1.48c1.85,0.41,5.45,2.95,4.92,6.03c-0.04,0.04-0.12,0.08-0.16,0.12
			c-0.66,0.74-1.07,1.64-1.27,2.71c-0.45,2.17,1.11,3.28,4.67,3.4c3.57,0.08,7.13-1.39,10.62-4.55c3.53-3.08,5.45-7.18,5.78-12.18
			c0.33-5-1.23-9.64-4.59-13.86c-3.36-4.18-7.59-7.22-12.63-9.06c-5.04-1.85-10.58-2.54-16.61-2.17
			c-5.99,0.37-11.73,2.34-17.18,5.86c-5.45,3.49-14.31,10.33-18.08,24.23c-2.13,8.57-2.62,16.93-0.12,25.34
			c2.42,8.12,5.74,14.39,10.09,18.99c4.72,5,19.15,20.63,49.98,21.24c9.8,0.2,18.9-1.85,27.35-6.81
			c8.49-4.96,14.84-10.29,19.15-15.95c4.31-5.7,7.91-12.26,10.78-19.68c2.95-7.42,4.67-16.2,5.25-26.28
			c0.53-10.13-0.7-17.26-2.46-32.48c-8.45-73.4,19.81-100.38,19.81-100.38c8.53-9.35,16.16-15.87,22.96-19.64
			c5.29-2.95,10.87-4.72,16.65-5.49l-0.04,0.04c0.49-0.12,0.98-0.16,1.48-0.25c0.2-0.04,0.37-0.08,0.53-0.08l0,0
			c1.56-0.25,3.08-0.45,4.67-0.57c7.71-0.45,14.6,0.33,20.63,2.34c6.07,1.97,11.52,5.21,16.32,9.6s8.53,10.62,11.11,18.78
			c2.67,8.12,3.2,15.66,1.6,22.76c-1.56,7.01-5.49,13.24-11.69,18.7c-6.27,5.41-12.71,8.69-19.44,9.8
			c-6.68,1.07-12.71,0.49-18.08-1.72c-5.41-2.21-9.02-5.66-10.87-10.13c-1.85-4.51-2.75-7.83-1.76-11.28
			c0.94-3.44,3.24-6.48,6.6-8.65c1.64-1.03,6.03-1.76,7.83,0.82c0,0.08-0.04,0.12,0,0.16c0.08,0.98,0.41,1.93,1.03,2.83
			c1.19,1.89,3.12,1.56,5.74-0.9c2.62-2.46,4.1-6.07,4.35-10.74c0.37-4.72-1.19-8.98-4.51-12.83c-3.28-3.77-7.71-6.03-13.08-6.64
			c-5.37-0.62-10.54,0.25-15.46,2.5c-4.92,2.26-9.35,5.7-13.41,10.25c-4.02,4.51-6.68,10.01-8.08,16.36
			c-1.44,6.36-2.91,17.55,4.26,30.14c4.55,7.63,10.13,13.94,17.92,18.16c7.5,4.1,14.31,6.19,20.71,6.4
			c6.93,0.2,28.33,1.15,50.76-20.3c7.13-6.81,12.18-14.72,14.72-24.32c2.5-9.6,3.28-17.92,2.34-25.01
			C446.83,249.1,444.74,241.8,441.5,234.46z M370.27,203.66c-7.13,0.74-16.03,3.03-23.5,6.03c-12.92,5.08-17.76,9.64-21.16,12.1
			c-31.25,22.84-35.59,74.79-35.59,74.79c-0.37,8.86-1.19,19.97-0.2,32.27c0.41,4.88,0.98,9.68,1.56,14.43
			c-3.16-4.06-6.4-7.38-9.76-9.96c-5.7-4.31-12.26-7.91-19.68-10.78c-7.42-2.95-16.2-4.67-26.28-5.25
			c-10.09-0.57-17.26,0.7-32.48,2.46c-35.47,4.06-60.07-0.41-76.06-6.15c4.47,0.62,8.61,0.78,12.42,0.37
			c7.09-0.74,16.03-3.03,23.5-5.99c12.92-5.08,17.76-9.6,21.16-12.1c31.29-22.84,35.59-74.79,35.59-74.79
			c0.37-8.86,1.19-19.97,0.16-32.23c-0.41-4.88-0.98-9.68-1.56-14.43c3.16,4.06,6.4,7.38,9.76,9.96c5.7,4.31,12.26,7.91,19.68,10.78
			c7.46,2.91,16.2,4.67,26.28,5.25c10.13,0.57,17.26-0.7,32.48-2.46c35.47-4.06,60.07,0.41,76.06,6.15
			C378.23,203.42,374.09,203.3,370.27,203.66z"/>
		<path class="st5" d="M146.92,225.15c2.3,4.92,3.12,10.09,2.5,15.46c-0.62,5.41-2.83,9.8-6.64,13.08
			c-3.85,3.36-8.12,4.88-12.83,4.51c-1.76-0.08-3.36-0.37-4.84-0.82c0.12,0.57,0.25,1.15,0.45,1.8c1.11,3.85,3.49,6.27,6.97,7.22
			c3.44,0.94,7.46,0.49,11.97-1.35c4.51-1.85,8.9-6.44,11.15-11.85c2.26-5.37,2.54-11.11,1.48-17.8c-1.11-6.72-4.18-13.33-9.64-19.6
			c-5.41-6.19-12.55-9.27-19.56-10.78c-1.8-0.41-3.65-0.66-5.54-0.82c5.49,1.52,10.29,4.02,14.27,7.59
			C141.22,215.8,144.67,220.23,146.92,225.15z"/>
		<path class="st5" d="M289.86,142.32c-4.22,3.36-8.82,4.92-13.82,4.59c-5.04-0.37-9.1-2.26-12.22-5.82
			c-1.19-1.31-2.13-2.62-2.83-3.94c-0.29,0.49-0.62,0.98-0.94,1.56c-1.93,3.49-1.93,6.85-0.12,9.92c1.76,3.08,4.92,5.58,9.39,7.42
			c4.47,1.85,10.78,1.68,16.16-0.57c5.37-2.21,9.55-6.03,13.49-11.48c3.9-5.49,6.4-12.34,6.93-20.54
			c0.49-8.16-2.34-15.29-6.23-21.32c-0.98-1.56-2.09-3.03-3.32-4.43c2.83,4.92,4.43,10.05,4.76,15.34
			c0.37,6.03-0.33,11.56-2.17,16.61C297.08,134.74,294.05,139,289.86,142.32z"/>
		<path class="st5" d="M219.99,375.27c4.22-3.36,8.86-4.92,13.82-4.55c5.04,0.33,9.1,2.26,12.18,5.78c1.19,1.31,2.13,2.62,2.83,3.98
			c0.33-0.49,0.62-0.98,0.94-1.56c1.93-3.53,1.93-6.89,0.12-9.92c-1.76-3.08-4.92-5.58-9.35-7.46c-4.47-1.85-10.78-1.68-16.16,0.57
			c-5.37,2.21-9.55,6.03-13.49,11.48c-3.94,5.49-6.4,12.34-6.93,20.54c-0.53,8.16,2.34,15.29,6.23,21.28
			c0.98,1.56,2.09,3.03,3.32,4.43c-2.83-4.92-4.43-10.05-4.76-15.34c-0.37-6.03,0.33-11.56,2.13-16.61
			C212.77,382.85,215.81,378.63,219.99,375.27z"/>
		<path class="st5" d="M359.57,292.6c-2.26-4.92-3.12-10.09-2.5-15.46s2.83-9.76,6.6-13.08c3.85-3.32,8.12-4.84,12.83-4.51
			c1.76,0.08,3.4,0.37,4.84,0.82c-0.12-0.57-0.25-1.15-0.45-1.8c-1.11-3.85-3.49-6.27-6.97-7.18c-3.44-0.98-7.46-0.49-11.97,1.31
			c-4.51,1.89-8.9,6.48-11.15,11.89s-2.54,11.11-1.48,17.8c1.11,6.72,4.22,13.33,9.64,19.6c5.45,6.19,12.55,9.27,19.56,10.78
			c1.8,0.41,3.65,0.66,5.54,0.78c-5.49-1.48-10.29-4.02-14.27-7.54C365.27,301.95,361.83,297.52,359.57,292.6z"/>
	</g>
</g>
</svg>
