<svg enable-background="new 0 0 400 114" viewBox="0 0 400 114" xmlns="http://www.w3.org/2000/svg"><g fill="#231f20"><path d="m235.16 30.59c-1.5-.67-2.93-.98-4.27-.95s-2.96.35-4.87.98c-1.55.51-3.05 1.4-4.49 2.66-1.43 1.26-2.4 2.82-2.9 4.66-.52 1.84-.69 3.44-.53 4.82.17 1.38.54 2.78 1.15 4.22.6 1.43 1.53 2.89 2.82 4.38 1.28 1.49 3.08 3.19 5.38 5.1.84.69 1.65 1.38 2.43 2.06 4.43 4.09 4.77 8.91 4.77 8.91.06 2.46-.13 4.4-.57 5.86-.44 1.44-1.18 2.7-2.23 3.77-1.04 1.06-2.13 1.84-3.26 2.34s-2.31.75-3.57.74c-1.25-.01-2.6-.42-4.03-1.25-1.44-.82-2.49-1.83-3.18-3.05s-.95-2.61-.75-4.19c.2-1.59.69-2.9 1.51-3.92.83-1.02 1.75-1.72 2.83-2.1 1.07-.37 2.02-.35 2.87.05s1.42.92 1.74 1.54c.31.62.27 1.26-.13 1.93-.4.66-.81 1.06-1.22 1.17-.42.12-.68.38-.78.8-.11.42.18.65.87.71.7.05 1.4-.21 2.12-.78.71-.56 1.13-1.33 1.25-2.3.11-.97-.14-1.89-.75-2.74-.61-.86-1.39-1.48-2.36-1.89-.96-.42-2.03-.61-3.21-.59-1.17.01-2.31.33-3.4.96-1.09.62-2.36 1.6-3.57 3.96-.87 2.3-1.04 4.23-.49 5.78.55 1.56 1.29 2.82 2.22 3.78.94.96 2.28 1.94 4.04 2.9 1.43.79 3.1 1.28 5.01 1.46 1.9.19 3.69-.15 5.4-1.03 1.68-.88 2.98-1.86 3.87-2.91.89-1.06 1.83-2.6 2.47-4.02s.97-2.61 1.32-4.54c1.23-6.7-2.17-10.41-2.17-10.41-.94-1.43-2.16-2.9-4.33-4.53-2.09-1.58-4.03-3.23-5.87-4.85-1.84-1.63-3.14-3.1-3.9-4.4-.77-1.31-1.18-2.71-1.24-4.2-.07-1.5.11-2.82.51-3.99s1.03-2.2 1.89-3.11c.86-.92 2.07-1.61 3.66-2.1 1.57-.49 3.04-.57 4.39-.24 1.37.32 2.55 1.09 3.58 2.31s1.65 2.47 1.83 3.77c.2 1.3.06 2.47-.38 3.51-.45 1.03-1.13 1.72-2 2.07-.87.34-1.65.41-2.31.22-.67-.18-1.11-.65-1.33-1.4-.21-.74-.22-1.32-.02-1.7.19-.38.17-.75-.05-1.12-.23-.36-.6-.3-1.12.16-.52.47-.82 1.16-.88 2.08-.07.91.22 1.74.85 2.48.63.75 1.46 1.18 2.5 1.32 1.04.13 2.03-.02 2.99-.45.96-.42 1.82-1.07 2.62-1.94.79-.87 1.33-1.91 1.62-3.14s.39-3.04-.47-5.3c-1.07-2.23-2.36-3.66-3.88-4.32z" stroke="#231f20" stroke-width="1.4233"/><path d="m152.16 30.59c-1.5-.67-2.93-.98-4.27-.95s-2.96.35-4.87.98c-1.55.51-3.05 1.4-4.49 2.66-1.43 1.26-2.4 2.82-2.9 4.66-.52 1.84-.69 3.44-.53 4.82.17 1.38.54 2.78 1.15 4.22.6 1.43 1.53 2.89 2.82 4.38 1.28 1.49 3.08 3.19 5.38 5.1.84.69 1.65 1.38 2.43 2.06 4.43 4.09 4.77 8.91 4.77 8.91.06 2.46-.13 4.4-.57 5.86-.44 1.44-1.18 2.7-2.23 3.77-1.04 1.06-2.13 1.84-3.26 2.34s-2.31.75-3.57.74c-1.25-.01-2.6-.42-4.03-1.25-1.44-.82-2.49-1.83-3.18-3.05s-.95-2.61-.75-4.19c.2-1.59.69-2.9 1.51-3.92.83-1.02 1.75-1.72 2.83-2.1 1.07-.37 2.02-.35 2.87.05s1.42.92 1.74 1.54c.31.62.27 1.26-.13 1.93-.4.66-.81 1.06-1.22 1.17-.42.12-.68.38-.78.8-.11.42.18.65.87.71.7.05 1.4-.21 2.12-.78.71-.56 1.13-1.33 1.25-2.3.11-.97-.14-1.89-.75-2.74-.61-.86-1.39-1.48-2.36-1.89-.96-.42-2.03-.61-3.21-.59-1.17.01-2.31.33-3.4.96-1.09.62-2.36 1.6-3.57 3.96-.87 2.3-1.04 4.23-.49 5.78.55 1.56 1.29 2.82 2.22 3.78.94.96 2.28 1.94 4.04 2.9 1.43.79 3.1 1.28 5.01 1.46 1.9.19 3.69-.15 5.4-1.03 1.68-.88 2.98-1.86 3.87-2.91.89-1.06 1.83-2.6 2.47-4.02s.97-2.61 1.32-4.54c1.23-6.7-2.17-10.41-2.17-10.41-.94-1.43-2.16-2.9-4.33-4.53-2.09-1.58-4.03-3.23-5.87-4.85-1.84-1.63-3.14-3.1-3.9-4.4-.77-1.31-1.18-2.71-1.24-4.2-.07-1.5.11-2.82.51-3.99s1.03-2.2 1.89-3.11c.86-.92 2.07-1.61 3.66-2.1 1.57-.49 3.04-.57 4.39-.24 1.37.32 2.55 1.09 3.58 2.31s1.65 2.47 1.83 3.77c.2 1.3.06 2.47-.38 3.51-.45 1.03-1.13 1.72-2 2.07-.87.34-1.65.41-2.31.22-.67-.18-1.11-.65-1.33-1.4-.21-.74-.22-1.32-.02-1.7.19-.38.17-.75-.05-1.12-.23-.36-.6-.3-1.12.16-.52.47-.82 1.16-.88 2.08-.07.91.22 1.74.85 2.48.63.75 1.46 1.18 2.5 1.32 1.04.13 2.03-.02 2.99-.45.96-.42 1.82-1.07 2.62-1.94.79-.87 1.33-1.91 1.62-3.14s.39-3.04-.47-5.3c-1.07-2.23-2.36-3.66-3.88-4.32z" stroke="#231f20" stroke-width="1.4233"/><path d="m250.44 37.35c.11.43.2.89.25 1.39s.08 1.07.08 1.69v2.88c0 .02-.01.14-.03.35s-.02.44 0 .69c.76-.02 1.64-.1 2.65-.22s2.18-.3 3.52-.52c.65.54 1.12 1.14 1.43 1.81s.46 1.48.49 2.42c-.74.38-1.63.69-2.68.92-1.05.24-2.83.49-5.33.75-.22 3.6-.39 7.05-.49 10.35s-.15 6.41-.15 9.34c0 3.76.17 6.05.5 6.88.34.83.97 1.24 1.91 1.24.49 0 .95-.05 1.38-.15s.83-.25 1.21-.45c.31.27.54.55.69.84s.22.6.22.94c0 .43-.09.85-.29 1.28-.19.42-.53.94-1.02 1.54-1.19.51-2.19.88-3 1.11-.82.22-1.55.34-2.2.34-1.9 0-3.26-.79-4.08-2.37s-1.22-4.22-1.22-7.93c0-1.83.11-4.66.34-8.49s.33-6.72.33-8.69c0-1.52-.01-2.68-.02-3.47s-.03-1.51-.05-2.16c-.58-.16-1.12-.34-1.63-.55-.5-.21-.99-.46-1.46-.75v-.33c0-.6.08-1.2.25-1.78s.41-1.16.72-1.74l2.31-.2.23-6.61c.49-.4.97-.7 1.43-.91.46-.2.92-.3 1.39-.3.33 0 .68.06 1.04.18s.79.35 1.28.68z"/><path d="m260.15 80.93c.11-3.06.2-5.73.25-8 .06-2.27.08-4.32.08-6.16 0-4.05-.07-7.89-.22-11.54s-.38-7.16-.69-10.53c.54-.58 1.13-1.04 1.79-1.39s1.44-.59 2.33-.72c.71.49 1.23 1.21 1.54 2.15s.51 2.65.6 5.13c1.52-1.5 2.81-2.72 3.88-3.67 1.06-.95 1.94-1.67 2.63-2.16.76.29 1.36.74 1.79 1.36.44.62.8 1.56 1.09 2.83-1.61.96-3.17 2.08-4.66 3.37s-2.96 2.77-4.39 4.44c-.07 2.12-.12 4.27-.15 6.44s-.05 4.37-.05 6.61c0 1.41.02 3.11.07 5.1.04 1.99.11 4.16.2 6.51l-1.03 1.3c-.2 0-.5-.01-.91-.03s-.69-.03-.87-.03c-.8 0-1.46-.08-1.98-.24s-.95-.41-1.3-.77z"/><path d="m279.1 50.2h-.2c-.72 0-1.34-.29-1.88-.87s-.8-1.21-.8-1.88c0-.09.03-.2.1-.34.07-.13.19-.31.37-.54 1.27-.76 2.59-1.5 3.96-2.21s2.75-1.4 4.16-2.05c2.8.54 4.73 2.05 5.8 4.55 1.07 2.49 1.61 8.41 1.61 17.76 0 3.11-.08 8.24-.24 15.4-.02.74-.03 1.29-.03 1.64-.47.2-.88.35-1.24.44s-.7.13-1.04.13c-.36 0-.73-.06-1.12-.17s-.77-.27-1.12-.47l-.27-1.58c-.94.45-1.88.8-2.83 1.06s-1.77.39-2.46.39c-1.83 0-3.2-.91-4.09-2.73s-1.34-4.65-1.34-8.47c0-4.45.71-7.65 2.13-9.59 1.42-1.95 3.74-2.92 6.96-2.92h1.07c-.02-2.77-.35-5.05-.97-6.84-.63-1.79-1.38-2.68-2.25-2.68-.2 0-.46.06-.79.17-.32.11-.65.26-.99.44zm7.75 25.23c0-2.08-.02-4.17-.05-6.26s-.08-4.22-.15-6.39c-.11-.02-.24-.04-.37-.05s-.32-.02-.57-.02c-1.32 0-2.31.53-2.99 1.58-.67 1.05-1.01 2.61-1.01 4.66 0 2.77.25 4.59.74 5.45s1.39 1.29 2.68 1.29c.2 0 .59-.06 1.17-.17.23-.04.41-.07.55-.09z"/><path d="m296.74 45.67c.6-.69 1.29-1.23 2.06-1.61s1.67-.61 2.7-.7l.6 1.91c.92-.38 1.86-.79 2.82-1.22.96-.44 1.95-.9 2.95-1.39.2-.04.41-.08.62-.1s.46-.03.75-.03c1.68 0 2.9.71 3.66 2.13s1.14 3.73 1.14 6.93v7.85c0 4.79.04 8.9.13 12.33s.23 6.41.44 8.94c-.56.38-1.1.66-1.63.84s-1.09.27-1.69.27c-.51 0-1.04-.07-1.56-.22-.53-.14-1.08-.36-1.66-.65.13-3.24.24-6.41.32-9.49.08-3.09.12-6.11.12-9.06v-1.44c0-5.68-.18-9.16-.55-10.45s-1.08-1.93-2.13-1.93c-.65 0-1.26.17-1.83.52s-1.02.81-1.36 1.39c.16 2.71.27 5.42.34 8.13s.1 5.48.1 8.3c0 1.75-.01 4.14-.03 7.2-.02 3.05-.03 5.23-.03 6.52-.33.43-.73.73-1.17.91s-1.04.27-1.78.27c-.58 0-1.13-.07-1.64-.2s-1.05-.36-1.61-.67c.25-3.98.42-7.88.54-11.71.11-3.82.17-7.59.17-11.3 0-2.73-.06-5.03-.18-6.89s-.34-3.68-.61-5.38z"/><path d="m321.06 50.2h-.2c-.72 0-1.34-.29-1.88-.87s-.8-1.21-.8-1.88c0-.09.03-.2.1-.34.07-.13.19-.31.37-.54 1.27-.76 2.59-1.5 3.96-2.21s2.75-1.4 4.16-2.05c2.8.54 4.73 2.05 5.8 4.55 1.07 2.49 1.61 8.41 1.61 17.76 0 3.11-.08 8.24-.24 15.4-.02.74-.03 1.29-.03 1.64-.47.2-.88.35-1.24.44s-.7.13-1.04.13c-.36 0-.73-.06-1.12-.17s-.77-.27-1.12-.47l-.27-1.58c-.94.45-1.88.8-2.83 1.06s-1.77.39-2.46.39c-1.83 0-3.2-.91-4.09-2.73s-1.34-4.65-1.34-8.47c0-4.45.71-7.65 2.13-9.59 1.42-1.95 3.74-2.92 6.96-2.92h1.07c-.02-2.77-.35-5.05-.97-6.84-.63-1.79-1.38-2.68-2.25-2.68-.2 0-.46.06-.79.17-.32.11-.65.26-.99.44zm7.75 25.23c0-2.08-.02-4.17-.05-6.26s-.08-4.22-.15-6.39c-.11-.02-.24-.04-.37-.05s-.32-.02-.57-.02c-1.32 0-2.31.53-2.99 1.58-.67 1.05-1.01 2.61-1.01 4.66 0 2.77.25 4.59.74 5.45s1.39 1.29 2.68 1.29c.2 0 .59-.06 1.17-.17.24-.04.42-.07.55-.09z"/><path d="m339.28 31.12c.49-.58 1.11-1.02 1.86-1.32s1.57-.45 2.47-.45c.18 0 .37.02.57.05s.42.08.67.15c.31 1.39.55 2.81.7 4.28s.24 3.06.24 4.78c0 .72-.02 1.58-.05 2.6s-.08 2.16-.15 3.44c1.5-.71 2.79-1.26 3.87-1.63s1.95-.55 2.6-.55c1.81 0 3.12 1.17 3.92 3.5s1.21 6.2 1.21 11.59c0 .83-.06 3.87-.17 9.14s-.17 10.12-.17 14.58c-.63.2-1.2.35-1.73.45s-1 .15-1.43.15c-.65 0-1.19-.09-1.61-.27s-.78-.46-1.07-.84c.16-3.53.27-6.8.35-9.79.08-3 .12-5.64.12-7.92v-4.33c0-4.58-.2-7.5-.6-8.75s-1.16-1.88-2.28-1.88c-.63 0-1.19.11-1.68.32s-.98.56-1.48 1.06c-.18 2.82-.3 6.04-.37 9.68-.07 3.63-.1 8.42-.1 14.34v7.45c-.56.22-1.1.39-1.61.5-.52.11-1.01.17-1.48.17-.4 0-.82-.04-1.24-.12s-.86-.2-1.31-.35c-.02-.85-.04-1.78-.05-2.78-.01-1.01-.02-2.46-.02-4.36 0-5.57.11-12.14.33-19.71s.34-12.36.34-14.37c0-1.18-.06-2.48-.17-3.87-.09-1.43-.26-3.07-.48-4.94z"/><path d="m364.13 50.2h-.2c-.72 0-1.34-.29-1.88-.87s-.8-1.21-.8-1.88c0-.09.03-.2.1-.34.07-.13.19-.31.37-.54 1.27-.76 2.59-1.5 3.96-2.21s2.75-1.4 4.16-2.05c2.8.54 4.73 2.05 5.8 4.55 1.07 2.49 1.61 8.41 1.61 17.76 0 3.11-.08 8.24-.24 15.4-.02.74-.03 1.29-.03 1.64-.47.2-.88.35-1.24.44s-.7.13-1.04.13c-.36 0-.73-.06-1.12-.17s-.77-.27-1.12-.47l-.27-1.58c-.94.45-1.88.8-2.83 1.06s-1.77.39-2.46.39c-1.83 0-3.2-.91-4.09-2.73s-1.34-4.65-1.34-8.47c0-4.45.71-7.65 2.13-9.59 1.42-1.95 3.74-2.92 6.96-2.92h1.07c-.02-2.77-.35-5.05-.97-6.84-.63-1.79-1.38-2.68-2.25-2.68-.2 0-.46.06-.79.17-.32.11-.65.26-.99.44zm7.75 25.23c0-2.08-.02-4.17-.05-6.26s-.08-4.22-.15-6.39c-.11-.02-.24-.04-.37-.05s-.32-.02-.57-.02c-1.32 0-2.31.53-2.99 1.58-.67 1.05-1.01 2.61-1.01 4.66 0 2.77.25 4.59.74 5.45s1.39 1.29 2.68 1.29c.2 0 .59-.06 1.17-.17.24-.04.42-.07.55-.09z"/><path d="m381.78 45.67c.6-.69 1.29-1.23 2.06-1.61s1.67-.61 2.7-.7l.6 1.91c.92-.38 1.86-.79 2.82-1.22.96-.44 1.95-.9 2.95-1.39.2-.04.41-.08.62-.1s.46-.03.75-.03c1.68 0 2.9.71 3.66 2.13s1.14 3.73 1.14 6.93v7.85c0 4.79.04 8.9.13 12.33s.24 6.41.44 8.94c-.56.38-1.1.66-1.63.84s-1.09.27-1.69.27c-.51 0-1.03-.07-1.56-.22-.53-.14-1.08-.36-1.66-.65.13-3.24.24-6.41.32-9.49.08-3.09.12-6.11.12-9.06v-1.44c0-5.68-.18-9.16-.55-10.45s-1.08-1.93-2.13-1.93c-.65 0-1.26.17-1.83.52s-1.02.81-1.36 1.39c.16 2.71.27 5.42.33 8.13.07 2.72.1 5.48.1 8.3 0 1.75-.01 4.14-.03 7.2s-.03 5.23-.03 6.52c-.34.43-.73.73-1.17.91-.45.18-1.04.27-1.78.27-.58 0-1.13-.07-1.64-.2s-1.05-.36-1.61-.67c.25-3.98.42-7.88.54-11.71.11-3.82.17-7.59.17-11.3 0-2.73-.06-5.03-.18-6.89-.14-1.89-.33-3.68-.6-5.38z"/><path d="m165.64 81.02c-3.82-.96-5.8-7.83-5.94-20.6-.09-7.16-.27-12.99-.54-17.51.56-.27 1.08-.46 1.58-.59s.97-.18 1.44-.18.96.07 1.46.22 1.08.4 1.73.75c-.04 1.81-.08 4.15-.1 7.03-.02 2.87-.03 6.04-.03 9.51v1.51c0 5.46.16 9.04.47 10.73.31 1.7.88 2.86 1.71 3.49h.4c.33 0 .65-.03.96-.08.3-.06.62-.14.96-.25.16-1.72.27-3.48.33-5.27.07-1.79.1-3.77.1-5.94 0-3.96-.06-7.73-.17-11.32s-.28-7.03-.5-10.32c.47-.2.94-.35 1.41-.45s.94-.15 1.41-.15c.54 0 1.08.07 1.64.22s1.17.39 1.84.72v2.62c0 .25-.01 1-.03 2.25-.11 6.84-.17 13.74-.17 20.7 0 3.29.03 5.78.08 7.48.06 1.7.14 3.3.25 4.8-.45.31-.94.53-1.49.65s-1.29.18-2.23.18h-1.01c-.29-.49-.53-.94-.7-1.34-.18-.4-.31-.77-.4-1.11-.76.72-1.49 1.28-2.2 1.69s-1.28.62-1.73.62c-.02 0-.1-.01-.22-.03s-.22-.03-.31-.03z"/><path d="m193.89 74.78c.72.49 1.24 1.01 1.56 1.56s.49 1.15.49 1.79c0 .33-.08.85-.24 1.54-.02.09-.03.15-.03.17-1.16.49-2.28.84-3.34 1.06-1.06.21-2.15.32-3.27.32-1.16 0-2.53-.13-4.09-.39s-3.33-.65-5.3-1.19c-.2-.54-.36-1.07-.47-1.61s-.17-1.05-.17-1.54c0-.29 0-.51.02-.67.01-.16.03-.29.05-.4l8.75-27.84c-.33.05-.67.08-.99.1s-.71.03-1.16.03c-.69 0-1.48-.06-2.35-.17s-1.86-.29-2.95-.54c-.18-.71-.31-1.37-.4-1.96s-.13-1.1-.13-1.53c0-.29.08-.56.24-.8.16-.25.4-.48.74-.71.72.25 1.47.42 2.26.52s1.73.15 2.8.15c1.12 0 2.15-.06 3.1-.17s1.82-.28 2.6-.5c.67.34 1.18.8 1.54 1.39s.62 1.44.8 2.53c-2.06 6.64-3.77 12.27-5.15 16.89s-2.57 8.76-3.57 12.43c.49.16 1 .27 1.51.35s1.02.12 1.51.12c.74 0 1.59-.08 2.55-.24.96-.14 1.99-.37 3.09-.69z"/><path d="m199.19 31.91c.54-.13 1.07-.23 1.59-.3s1.02-.1 1.49-.1c.25 0 .59.04 1.04.13s.95.22 1.51.4c.2.63.35 1.16.45 1.59.1.44.15.8.15 1.09s-.05.63-.15 1.01-.27.88-.52 1.51c-.6.18-1.15.31-1.64.39s-.91.12-1.24.12c-.27 0-.61-.04-1.02-.12s-.95-.2-1.59-.35c-.18-.65-.31-1.21-.4-1.68s-.13-.87-.13-1.21c0-.22.03-.49.08-.8s.18-.87.38-1.68zm.47 48.91c-.16-3.98-.27-7.59-.35-10.83s-.12-6.32-.12-9.22c0-1.9.03-4.18.1-6.84s.19-6.45.37-11.37c.42-.13.84-.23 1.26-.3s.82-.1 1.22-.1c.42 0 .83.02 1.21.07s.77.11 1.17.2c.13 4.81.23 9.38.29 13.7.06 4.33.08 8.52.08 12.56 0 1.3-.01 3.24-.03 5.82s-.03 4.5-.03 5.75c-.51.36-1.03.62-1.54.79s-1.03.25-1.54.25c-.29 0-.58-.03-.87-.1-.31-.08-.71-.2-1.22-.38z"/></g><path d="m88.72 29.57c-.8 0-1.59.04-2.38.1.04-.52.05-1.05.06-1.58.06-15.01-12.05-27.23-27.06-27.3s-27.23 12.05-27.3 27.06c0 .94.04 1.88.13 2.8-1.31-.2-2.66-.31-4.03-.32-15.01-.07-27.23 12.05-27.3 27.06s12.05 27.23 27.06 27.29c1.16.01 2.3-.06 3.43-.2-.04.56-.06 1.12-.06 1.68-.06 15.01 12.05 27.24 27.06 27.3 15.01.07 27.23-12.05 27.3-27.06 0-.9-.04-1.79-.12-2.67.97.11 1.97.18 2.97.18 15.01.07 27.23-12.04 27.3-27.05s-12.05-27.23-27.06-27.29z" fill="none"/><path d="m88.72 29.57c-.8 0-1.59.04-2.38.1.04-.52.05-1.05.06-1.58.06-15.01-12.05-27.23-27.06-27.3s-27.23 12.05-27.3 27.06c0 .94.04 1.88.13 2.8-1.31-.2-2.66-.31-4.03-.32-15.01-.07-27.23 12.05-27.3 27.06s12.05 27.23 27.06 27.29c1.16.01 2.3-.06 3.43-.2-.04.56-.06 1.12-.06 1.68-.06 15.01 12.05 27.24 27.06 27.3 15.01.07 27.23-12.05 27.3-27.06 0-.9-.04-1.79-.12-2.67.97.11 1.97.18 2.97.18 15.01.07 27.23-12.04 27.3-27.05s-12.05-27.23-27.06-27.29z" fill="#b8729b" opacity=".48"/><path d="m88.72 29.57c-.8 0-1.59.04-2.38.1.04-.52.05-1.05.06-1.58.06-15.01-12.05-27.23-27.06-27.3s-27.23 12.05-27.3 27.06c0 .94.04 1.88.13 2.8-1.31-.2-2.66-.31-4.03-.32-15.01-.07-27.23 12.05-27.3 27.06s12.05 27.23 27.06 27.29c1.16.01 2.3-.06 3.43-.2-.04.56-.06 1.12-.06 1.68-.06 15.01 12.05 27.24 27.06 27.3 15.01.07 27.23-12.05 27.3-27.06 0-.9-.04-1.79-.12-2.67.97.11 1.97.18 2.97.18 15.01.07 27.23-12.04 27.3-27.05s-12.05-27.23-27.06-27.29z" fill="#73628a"/><path d="m69.05 79.05c0-.74 1.04-16.61 1.48-17.79.44-1.19 5.78-11.71 6.52-11.86s6.82-2.67 6.82-2.67l8.3-1.93s-1.93-3.26-2.97-3.71c-1.04-.44-15.72-2.08-16.9-2.08-1.19 0-14.23-.15-14.23-.15s-9.64-5.78-9.64-6.23-1.63 2.52-1.63 2.52l-1.93 21.2-7.86 9.04-10.82 3.71s3.26 2.97 3.86 3.41 13.79 3.26 13.79 3.26 9.64-2.52 10.23-2.52 7.41 1.63 7.41 1.63l3.71 4.15h3.86z" fill="#8f80a1" stroke="#b6d45c" stroke-miterlimit="10" stroke-width=".25"/><path d="m103.75 51.14c-.77-1.81-1.99-3.63-3.63-5.49-1.53-1.72-2.89-2.73-5.42-4.73l.02.03c-4.62-3.06-11.9-4.13-11.9-4.13-3.46-.35-4.87-.29-7.86-.04-3.26.27-6.4.82-9.47 1.06-3.07.25-5.53.15-7.37-.3s-3.47-1.3-4.88-2.54c-1.4-1.24-2.45-2.55-3.14-3.92-.71-1.38-1.09-2.86-1.17-4.43-.07-1.57.36-3.28 1.3-5.12.92-1.85 2.13-3.24 3.61-4.18 1.47-.95 3.21-1.34 5.2-1.21 2 .14 3.67.68 5.01 1.63 1.33.95 2.27 2.08 2.81 3.39.55 1.31.59 2.5.14 3.59-.46 1.09-.87 1.81-1.62 2.24-.75.44-1.66.56-2.62.36-.45-.1-1.33-.72-1.21-1.47.01-.01.03-.02.04-.03.16-.18.26-.4.31-.66.11-.53-.27-.8-1.14-.83-.87-.02-1.74.35-2.59 1.11-.86.75-1.33 1.75-1.42 2.97-.08 1.22.3 2.35 1.12 3.37s1.85 1.76 3.08 2.21 2.58.62 4.05.53c1.45-.09 2.86-.57 4.19-1.43 1.32-.85 3.49-2.52 4.41-5.91.52-2.09.64-4.13.03-6.18-.59-1.98-1.4-3.51-2.46-4.63-1.15-1.22-4.67-5.03-12.19-5.18-2.39-.05-4.61.44-6.68 1.66s-3.62 2.51-4.67 3.9-1.93 2.99-2.63 4.8c-.72 1.82-1.14 3.95-1.28 6.41-.14 2.47.17 4.21.6 7.92 2.06 17.9-4.83 24.48-4.83 24.48-2.08 2.28-3.89 3.98-5.6 4.79-2.38 1.13-4.23 1.48-5.86 1.66-1.76.08-4.2-.15-5.67-.63-1.48-.49-2.8-1.27-3.98-2.34-1.16-1.07-2.07-2.59-2.71-4.58-.65-1.97-.77-3.82-.39-5.55.38-1.71 1.34-3.23 2.85-4.56 1.53-1.32 3.11-2.12 4.74-2.39 1.63-.26 3.1-.12 4.41.43 1.32.55 2.19 1.37 2.65 2.47.45 1.1.67 1.91.43 2.75-.23.85-.79 1.58-1.61 2.11-.39.25-1.46.43-1.91-.2 0-.01.01-.03.01-.04-.02-.24-.1-.47-.25-.69-.29-.46-.76-.39-1.4.22-.64.6-1 1.48-1.07 2.63-.08 1.15.29 2.19 1.1 3.13.81.92 1.88 1.46 3.19 1.62 1.31.15 2.57-.06 3.77-.61 1.19-.55 2.28-1.39 3.26-2.5.98-1.1 1.63-2.44 1.98-4 .34-1.55.7-4.28-1.04-7.35-1.11-1.86-2.48-3.41-4.37-4.44-1.83-1-3.49-1.51-5.05-1.56-1.69-.05-6.9-.28-12.38 4.95-1.74 1.66-2.97 3.59-3.59 5.92-.61 2.34-.8 4.36-.57 6.1.23 1.73.75 3.5 1.53 5.3s1.99 3.63 3.64 5.48c1.65 1.86 3.45 3.52 6.04 5.23l.01-.01c5.69 3.03 12.06 3.56 12.06 3.56 2.16.09 4.87.29 7.87.04 3.26-.27 6.4-.82 9.47-1.06 3.07-.25 5.53-.15 7.37.3s3.47 1.3 4.88 2.54c1.4 1.24 2.45 2.55 3.15 3.92.7 1.38 1.08 2.86 1.16 4.42.07 1.57-.35 3.28-1.29 5.13-.93 1.85-2.14 3.23-3.61 4.18-1.46.94-3.2 1.34-5.2 1.22-2-.14-3.67-.68-5.01-1.64-1.33-.96-2.27-2.08-2.81-3.39-.55-1.31-.58-2.5-.13-3.59.46-1.09.87-1.81 1.62-2.24s1.66-.56 2.62-.36c.45.1 1.33.72 1.2 1.47-.01.01-.03.02-.04.03-.16.18-.26.4-.31.66-.11.53.27.8 1.14.83.87.02 1.74-.34 2.59-1.11.86-.75 1.33-1.75 1.41-2.97s-.3-2.35-1.12-3.38c-.82-1.02-1.85-1.76-3.08-2.21s-2.58-.62-4.05-.53c-1.46.09-2.86.57-4.19 1.43-1.33.85-3.49 2.52-4.41 5.91-.52 2.09-.64 4.13-.03 6.18.59 1.98 1.4 3.51 2.46 4.63 1.15 1.22 4.67 5.03 12.19 5.18 2.39.05 4.61-.45 6.67-1.66 2.07-1.21 3.62-2.51 4.67-3.89 1.05-1.39 1.93-2.99 2.63-4.8.72-1.81 1.14-3.95 1.28-6.41.13-2.47-.17-4.21-.6-7.92-2.06-17.9 4.83-24.48 4.83-24.48 2.08-2.28 3.94-3.87 5.6-4.79 1.29-.72 2.65-1.15 4.06-1.34l-.01.01c.12-.03.24-.04.36-.06.05-.01.09-.02.13-.02.38-.06.75-.11 1.14-.14 1.88-.11 3.56.08 5.03.57 1.48.48 2.81 1.27 3.98 2.34s2.08 2.59 2.71 4.58c.65 1.98.78 3.82.39 5.55-.38 1.71-1.34 3.23-2.85 4.56-1.53 1.32-3.1 2.12-4.74 2.39-1.63.26-3.1.12-4.41-.42-1.32-.54-2.2-1.38-2.65-2.47-.45-1.1-.67-1.91-.43-2.75.23-.84.79-1.58 1.61-2.11.4-.25 1.47-.43 1.91.2 0 .02-.01.03 0 .04.02.24.1.47.25.69.29.46.76.38 1.4-.22s1-1.48 1.06-2.62c.09-1.15-.29-2.19-1.1-3.13-.8-.92-1.88-1.47-3.19-1.62s-2.57.06-3.77.61-2.28 1.39-3.27 2.5c-.98 1.1-1.63 2.44-1.97 3.99-.35 1.55-.71 4.28 1.04 7.35 1.11 1.86 2.47 3.4 4.37 4.43 1.83 1 3.49 1.51 5.05 1.56 1.69.05 6.91.28 12.38-4.95 1.74-1.66 2.97-3.59 3.59-5.93.61-2.34.8-4.37.57-6.1-.23-1.71-.74-3.49-1.53-5.28zm-17.37-7.51c-1.74.18-3.91.74-5.73 1.47-3.15 1.24-4.33 2.35-5.16 2.95-7.62 5.57-8.68 18.24-8.68 18.24-.09 2.16-.29 4.87-.05 7.87.1 1.19.24 2.36.38 3.52-.77-.99-1.56-1.8-2.38-2.43-1.39-1.05-2.99-1.93-4.8-2.63-1.81-.72-3.95-1.14-6.41-1.28s-4.21.17-7.92.6c-8.65.99-14.65-.1-18.55-1.5 1.09.15 2.1.19 3.03.09 1.73-.18 3.91-.74 5.73-1.46 3.15-1.24 4.33-2.34 5.16-2.95 7.63-5.57 8.68-18.24 8.68-18.24.09-2.16.29-4.87.04-7.86-.1-1.19-.24-2.36-.38-3.52.77.99 1.56 1.8 2.38 2.43 1.39 1.05 2.99 1.93 4.8 2.63 1.82.71 3.95 1.14 6.41 1.28 2.47.14 4.21-.17 7.92-.6 8.65-.99 14.65.1 18.55 1.5-1.08-.17-2.09-.2-3.02-.11z" fill="#fff"/><path d="m31.91 48.87c.56 1.2.76 2.46.61 3.77-.15 1.32-.69 2.39-1.62 3.19-.94.82-1.98 1.19-3.13 1.1-.43-.02-.82-.09-1.18-.2.03.14.06.28.11.44.27.94.85 1.53 1.7 1.76.84.23 1.82.12 2.92-.33s2.17-1.57 2.72-2.89c.55-1.31.62-2.71.36-4.34-.27-1.64-1.02-3.25-2.35-4.78-1.32-1.51-3.06-2.26-4.77-2.63-.44-.1-.89-.16-1.35-.2 1.34.37 2.51.98 3.48 1.85 1.11.98 1.95 2.06 2.5 3.26z" fill="#8f80a1"/><path d="m66.77 28.67c-1.03.82-2.15 1.2-3.37 1.12-1.23-.09-2.22-.55-2.98-1.42-.29-.32-.52-.64-.69-.96-.07.12-.15.24-.23.38-.47.85-.47 1.67-.03 2.42.43.75 1.2 1.36 2.29 1.81s2.63.41 3.94-.14c1.31-.54 2.33-1.47 3.29-2.8.95-1.34 1.56-3.01 1.69-5.01.12-1.99-.57-3.73-1.52-5.2-.24-.38-.51-.74-.81-1.08.69 1.2 1.08 2.45 1.16 3.74.09 1.47-.08 2.82-.53 4.05-.45 1.24-1.19 2.28-2.21 3.09z" fill="#8f80a1"/><path d="m49.73 85.48c1.03-.82 2.16-1.2 3.37-1.11 1.23.08 2.22.55 2.97 1.41.29.32.52.64.69.97.08-.12.15-.24.23-.38.47-.86.47-1.68.03-2.42-.43-.75-1.2-1.36-2.28-1.82-1.09-.45-2.63-.41-3.94.14-1.31.54-2.33 1.47-3.29 2.8-.96 1.34-1.56 3.01-1.69 5.01-.13 1.99.57 3.73 1.52 5.19.24.38.51.74.81 1.08-.69-1.2-1.08-2.45-1.16-3.74-.09-1.47.08-2.82.52-4.05.46-1.23 1.2-2.26 2.22-3.08z" fill="#8f80a1"/><path d="m83.77 65.32c-.55-1.2-.76-2.46-.61-3.77s.69-2.38 1.61-3.19c.94-.81 1.98-1.18 3.13-1.1.43.02.83.09 1.18.2-.03-.14-.06-.28-.11-.44-.27-.94-.85-1.53-1.7-1.75-.84-.24-1.82-.12-2.92.32-1.1.46-2.17 1.58-2.72 2.9s-.62 2.71-.36 4.34c.27 1.64 1.03 3.25 2.35 4.78 1.33 1.51 3.06 2.26 4.77 2.63.44.1.89.16 1.35.19-1.34-.36-2.51-.98-3.48-1.84-1.1-.99-1.94-2.07-2.49-3.27z" fill="#8f80a1"/><path d="m185.79 103.24h7.94c-.09 2-.74 3.62-1.95 4.86s-2.74 1.86-4.6 1.86c-.96 0-1.85-.18-2.67-.55s-1.54-.92-2.19-1.64c-.55-.6-.96-1.29-1.24-2.06s-.42-1.59-.42-2.47c0-.9.17-1.75.51-2.55s.84-1.53 1.5-2.17c.62-.62 1.32-1.09 2.09-1.39.77-.31 1.62-.46 2.56-.46 1.3 0 2.44.3 3.42.91s1.72 1.47 2.22 2.59h-2.29c-.42-.54-.93-.96-1.52-1.23-.59-.28-1.24-.41-1.97-.41-.61 0-1.18.11-1.73.34s-1.03.56-1.46.99c-.44.45-.79.98-1.03 1.57-.25.6-.37 1.21-.37 1.83 0 .67.11 1.3.34 1.89.22.6.54 1.11.96 1.54.44.46.95.81 1.53 1.06s1.17.38 1.77.38c.98 0 1.84-.26 2.58-.78.75-.52 1.36-1.29 1.84-2.3h-5.82z" fill="#73628a"/><path d="m204.46 109.7h-1.85v-12.8h3.69c1.54 0 2.71.35 3.52 1.06s1.21 1.73 1.21 3.08c0 1.04-.34 1.92-1.02 2.61-.68.7-1.55 1.08-2.61 1.13l3.63 4.91h-2.32l-4.25-5.94zm0-6.15h.95c1.28 0 2.24-.21 2.87-.62s.94-1.05.94-1.9c0-.83-.27-1.43-.81-1.82s-1.39-.58-2.56-.58h-1.39z" fill="#73628a"/><path d="m221.71 105.98-1.44 3.73h-1.96l5-12.8h1.8l5 12.8h-2.03l-1.41-3.73zm4.29-1.8-1.8-4.86-1.84 4.86z" fill="#73628a"/><path d="m239.85 109.7h-1.84v-12.8h2.97c.84 0 1.47.04 1.91.12s.82.22 1.15.41c.53.31.96.75 1.27 1.33.32.58.47 1.2.47 1.88 0 1.19-.4 2.14-1.2 2.84s-1.89 1.06-3.26 1.06h-1.48v5.16zm0-6.85h1.34c.96 0 1.65-.17 2.08-.5s.65-.86.65-1.59-.22-1.27-.66-1.62-1.11-.53-2.01-.53h-1.41v4.24z" fill="#73628a"/><path d="m256.32 109.7h-1.85v-12.8h1.85v5.43h5.22v-5.43h1.85v12.8h-1.85v-5.55h-5.22z" fill="#73628a"/><path d="m274.68 109.7h-1.85v-12.8h1.85z" fill="#73628a"/><path d="m295.76 106.5c-.56 1.12-1.33 1.98-2.31 2.57s-2.12.89-3.42.89c-.96 0-1.85-.18-2.66-.55s-1.54-.92-2.18-1.64c-.54-.6-.96-1.29-1.24-2.06s-.42-1.59-.42-2.47c0-.89.17-1.74.51-2.54s.84-1.53 1.49-2.18c.62-.61 1.31-1.07 2.07-1.38s1.57-.47 2.45-.47c1.31 0 2.47.31 3.46.93s1.74 1.5 2.25 2.64h-2.18c-.41-.57-.91-1-1.51-1.28s-1.27-.43-2.03-.43c-.6 0-1.18.11-1.72.34s-1.03.56-1.45.99c-.44.45-.78.98-1.03 1.57s-.37 1.21-.37 1.83c0 .67.11 1.3.33 1.89.22.6.54 1.11.96 1.54.44.46.95.81 1.52 1.06s1.16.38 1.76.38c.73 0 1.39-.14 1.98-.42s1.07-.68 1.45-1.21z" fill="#73628a"/><path d="m318.93 105.98-1.44 3.73h-1.96l5-12.8h1.8l5 12.8h-2.03l-1.41-3.73zm4.3-1.8-1.8-4.86-1.84 4.86z" fill="#73628a"/><path d="m337.09 109.7h-1.85v-12.8h3.69c1.54 0 2.71.35 3.52 1.06s1.21 1.73 1.21 3.08c0 1.04-.34 1.92-1.01 2.61-.68.7-1.55 1.08-2.62 1.13l3.63 4.91h-2.32l-4.25-5.94zm0-6.15h.95c1.28 0 2.24-.21 2.87-.62s.94-1.05.94-1.9c0-.83-.27-1.43-.81-1.82s-1.39-.58-2.56-.58h-1.39z" fill="#73628a"/><path d="m355.88 109.7h-1.85v-11.07h-2.39v-1.72h6.64v1.72h-2.39v11.07z" fill="#73628a"/><path d="m368.57 109.7h-1.85v-12.8h1.85z" fill="#73628a"/><path d="m377.33 106.01h1.66c.03.66.23 1.19.59 1.59s.83.59 1.42.59c.64 0 1.15-.2 1.53-.59s.58-.92.58-1.59c0-.58-.14-1.03-.42-1.34s-.87-.61-1.77-.89c-.05-.01-.13-.03-.24-.06-1.07-.29-1.85-.76-2.33-1.42-.22-.29-.38-.59-.49-.92s-.16-.67-.16-1.04c0-1.1.33-1.98.98-2.66s1.5-1.01 2.56-1.01c.98 0 1.77.3 2.37.91s.93 1.44 1 2.49h-1.73c-.03-.51-.2-.92-.51-1.23s-.71-.47-1.18-.47c-.51 0-.92.17-1.24.52s-.48.8-.48 1.35c0 .19.03.38.09.54s.15.33.27.47c.25.3.79.56 1.62.77.38.1.67.18.88.25.84.32 1.48.78 1.92 1.38s.66 1.33.66 2.17c0 1.24-.35 2.23-1.05 2.99s-1.63 1.13-2.79 1.13c-1.09 0-1.98-.36-2.66-1.08s-1.07-1.66-1.08-2.85z" fill="#73628a"/><path d="m397.02 109.7h-1.85v-11.07h-2.39v-1.72h6.64v1.72h-2.39v11.07z" fill="#73628a"/></svg>