<?xml version="1.0" encoding="utf-8"?>
<!-- Generator: Adobe Illustrator 24.0.0, SVG Export Plug-In . SVG Version: 6.00 Build 0)  -->
<svg version="1.1" id="Layer_1" xmlns="http://www.w3.org/2000/svg" xmlns:xlink="http://www.w3.org/1999/xlink" x="0px" y="0px"
	 viewBox="0 0 300 230" width="300px" height="230px" style="enable-background:new 0 0 300 230;" xml:space="preserve">
<style type="text/css">
	.st0{fill:#231F20;stroke:#231F20;stroke-width:1.4233;}
	.st1{enable-background:new    ;}
	.st2{fill:#231F20;}
	.st3{fill:#73628A;}
	.st4{fill:none;}
	.st5{opacity:0.48;fill:#B8729B;enable-background:new    ;}
	.st6{fill:#73628A;stroke:#B6D45C;stroke-width:0.25;stroke-miterlimit:10;}
	.st7{fill:#FFFFFF;}
	.st8{fill:#8F80A1;}
</style>
<path class="st0" d="M121.56,140.34c-1.56-0.69-3.03-1.01-4.42-0.99c-1.38,0.03-3.07,0.37-5.04,1.02c-1.61,0.53-3.15,1.45-4.64,2.75
	c-1.48,1.3-2.48,2.92-3,4.82c-0.54,1.9-0.72,3.56-0.55,4.99c0.18,1.43,0.56,2.87,1.19,4.37c0.62,1.48,1.59,2.99,2.91,4.53
	c1.32,1.54,3.18,3.3,5.56,5.28c0.87,0.71,1.71,1.43,2.51,2.13c4.58,4.23,4.94,9.22,4.94,9.22c0.06,2.54-0.14,4.55-0.59,6.06
	c-0.45,1.49-1.22,2.79-2.31,3.9c-1.08,1.1-2.2,1.91-3.37,2.42c-1.17,0.52-2.39,0.78-3.69,0.77c-1.29-0.01-2.69-0.44-4.16-1.29
	c-1.49-0.85-2.58-1.9-3.29-3.15c-0.72-1.26-0.98-2.7-0.78-4.33c0.2-1.65,0.72-3,1.56-4.06c0.85-1.05,1.82-1.78,2.92-2.17
	s2.09-0.36,2.97,0.05c0.88,0.42,1.46,0.96,1.8,1.59c0.32,0.64,0.28,1.3-0.13,1.99c-0.42,0.69-0.84,1.09-1.27,1.21
	s-0.7,0.4-0.81,0.83c-0.12,0.43,0.18,0.67,0.9,0.73c0.72,0.05,1.45-0.21,2.19-0.81c0.74-0.58,1.17-1.38,1.29-2.38
	c0.11-1.01-0.14-1.95-0.77-2.83c-0.63-0.88-1.44-1.54-2.44-1.96c-1-0.43-2.1-0.63-3.32-0.61c-1.21,0.01-2.39,0.34-3.51,0.99
	c-1.12,0.64-2.44,1.66-3.69,4.09c-0.9,2.38-1.07,4.37-0.51,5.98c0.57,1.61,1.33,2.92,2.3,3.91c0.97,1,2.35,2,4.18,3
	c1.48,0.82,3.21,1.32,5.18,1.51c1.96,0.19,3.82-0.16,5.59-1.07c1.74-0.91,3.08-1.92,4.01-3.01c0.92-1.1,1.89-2.69,2.56-4.16
	c0.67-1.46,1.01-2.7,1.37-4.7c1.27-6.93-2.25-10.76-2.25-10.76c-0.97-1.48-2.24-3-4.48-4.69c-2.16-1.64-4.17-3.34-6.08-5.02
	c-1.9-1.69-3.25-3.2-4.03-4.56c-0.79-1.35-1.22-2.8-1.29-4.35c-0.08-1.55,0.11-2.92,0.53-4.13c0.41-1.21,1.06-2.28,1.95-3.22
	c0.89-0.95,2.15-1.67,3.78-2.17s3.15-0.59,4.54-0.25c1.41,0.33,2.64,1.13,3.71,2.39s1.7,2.56,1.89,3.9
	c0.21,1.35,0.07,2.55-0.39,3.63c-0.47,1.07-1.16,1.78-2.07,2.14c-0.9,0.35-1.71,0.43-2.39,0.23c-0.69-0.19-1.15-0.68-1.38-1.45
	c-0.22-0.77-0.22-1.37-0.02-1.76c0.2-0.4,0.18-0.78-0.05-1.16c-0.24-0.37-0.62-0.31-1.16,0.17c-0.54,0.49-0.84,1.2-0.91,2.15
	c-0.07,0.94,0.22,1.8,0.88,2.57c0.65,0.77,1.51,1.22,2.59,1.37c1.07,0.13,2.1-0.02,3.09-0.46c1-0.44,1.89-1.11,2.71-2
	c0.82-0.9,1.38-1.98,1.67-3.25s0.41-3.14-0.49-5.48C124.48,142.51,123.14,141.03,121.56,140.34z"/>
<g>
	<g class="st1">
		<path class="st2" d="M135.9,145.99c0.11,0.43,0.2,0.89,0.25,1.39c0.06,0.5,0.08,1.07,0.08,1.7v2.88c0,0.02-0.01,0.14-0.03,0.35
			c-0.02,0.21-0.02,0.44,0,0.69c0.76-0.02,1.64-0.1,2.65-0.22c1.01-0.12,2.18-0.29,3.52-0.52c0.65,0.54,1.12,1.14,1.43,1.81
			c0.3,0.67,0.46,1.47,0.49,2.41c-0.74,0.38-1.63,0.69-2.68,0.92c-1.05,0.24-2.83,0.49-5.33,0.76c-0.22,3.6-0.39,7.05-0.49,10.35
			c-0.1,3.3-0.15,6.41-0.15,9.34c0,3.76,0.17,6.05,0.5,6.88c0.34,0.83,0.97,1.24,1.91,1.24c0.49,0,0.95-0.05,1.38-0.15
			c0.42-0.1,0.83-0.25,1.21-0.45c0.31,0.27,0.54,0.55,0.69,0.84s0.22,0.6,0.22,0.94c0,0.43-0.09,0.85-0.29,1.28
			c-0.19,0.42-0.53,0.94-1.02,1.54c-1.19,0.51-2.19,0.88-3,1.11c-0.82,0.22-1.55,0.34-2.2,0.34c-1.9,0-3.26-0.79-4.08-2.37
			s-1.22-4.22-1.22-7.93c0-1.83,0.11-4.66,0.34-8.49s0.33-6.72,0.33-8.69c0-1.52-0.01-2.68-0.02-3.47
			c-0.01-0.79-0.03-1.51-0.05-2.16c-0.58-0.16-1.12-0.34-1.63-0.55c-0.5-0.21-0.99-0.46-1.46-0.75v-0.34c0-0.6,0.08-1.2,0.25-1.78
			s0.41-1.16,0.72-1.74l2.31-0.2l0.23-6.61c0.49-0.4,0.97-0.7,1.43-0.9c0.46-0.2,0.92-0.3,1.39-0.3c0.33,0,0.68,0.06,1.04,0.18
			C134.98,145.42,135.4,145.65,135.9,145.99z"/>
	</g>
	<g class="st1">
		<path class="st2" d="M145.59,189.56c0.11-3.06,0.2-5.73,0.25-8c0.06-2.27,0.08-4.32,0.08-6.15c0-4.05-0.07-7.89-0.22-11.54
			c-0.15-3.65-0.38-7.16-0.69-10.53c0.54-0.58,1.13-1.04,1.79-1.39c0.66-0.35,1.44-0.59,2.33-0.72c0.72,0.49,1.23,1.21,1.54,2.15
			c0.31,0.94,0.51,2.65,0.6,5.13c1.52-1.5,2.81-2.72,3.87-3.67c1.06-0.95,1.94-1.67,2.63-2.16c0.76,0.29,1.36,0.74,1.79,1.36
			s0.8,1.56,1.09,2.83c-1.61,0.96-3.17,2.09-4.66,3.37c-1.5,1.29-2.96,2.77-4.39,4.45c-0.07,2.12-0.12,4.27-0.15,6.44
			c-0.03,2.17-0.05,4.37-0.05,6.61c0,1.41,0.02,3.11,0.07,5.1c0.04,1.99,0.11,4.16,0.2,6.51l-1.04,1.31c-0.2,0-0.5-0.01-0.91-0.03
			c-0.4-0.02-0.69-0.03-0.87-0.03c-0.81,0-1.47-0.08-1.98-0.24C146.38,190.18,145.95,189.92,145.59,189.56z"/>
		<path class="st2" d="M164.54,158.84h-0.2c-0.72,0-1.34-0.29-1.88-0.87s-0.81-1.21-0.81-1.88c0-0.09,0.03-0.2,0.1-0.34
			c0.07-0.13,0.19-0.31,0.37-0.54c1.27-0.76,2.59-1.5,3.96-2.21c1.36-0.71,2.75-1.4,4.16-2.05c2.8,0.54,4.73,2.05,5.8,4.55
			c1.07,2.49,1.61,8.41,1.61,17.76c0,3.11-0.08,8.24-0.23,15.4c-0.02,0.74-0.03,1.29-0.03,1.64c-0.47,0.2-0.88,0.35-1.24,0.44
			c-0.36,0.09-0.7,0.13-1.04,0.13c-0.36,0-0.73-0.05-1.12-0.17c-0.39-0.11-0.77-0.27-1.12-0.47l-0.27-1.58
			c-0.94,0.45-1.88,0.8-2.83,1.06c-0.95,0.26-1.77,0.38-2.47,0.38c-1.83,0-3.2-0.91-4.09-2.73c-0.9-1.82-1.34-4.65-1.34-8.47
			c0-4.45,0.71-7.65,2.13-9.59c1.42-1.95,3.74-2.92,6.96-2.92h1.07c-0.02-2.77-0.35-5.05-0.97-6.84c-0.63-1.79-1.38-2.68-2.25-2.68
			c-0.2,0-0.46,0.06-0.79,0.17c-0.32,0.11-0.65,0.26-0.99,0.44L164.54,158.84z M172.29,184.06c0-2.08-0.02-4.17-0.05-6.26
			c-0.03-2.09-0.08-4.22-0.15-6.39c-0.11-0.02-0.23-0.04-0.37-0.05c-0.13-0.01-0.32-0.02-0.57-0.02c-1.32,0-2.31,0.53-2.99,1.58
			s-1.01,2.61-1.01,4.66c0,2.77,0.25,4.59,0.74,5.45s1.39,1.29,2.68,1.29c0.2,0,0.59-0.05,1.17-0.17
			C171.98,184.12,172.16,184.08,172.29,184.06z"/>
		<path class="st2" d="M182.19,154.31c0.6-0.69,1.29-1.23,2.06-1.61c0.77-0.38,1.67-0.61,2.7-0.7l0.6,1.91
			c0.92-0.38,1.86-0.79,2.82-1.22s1.95-0.9,2.95-1.39c0.2-0.04,0.41-0.08,0.62-0.1c0.21-0.02,0.46-0.04,0.75-0.04
			c1.68,0,2.9,0.71,3.66,2.13c0.76,1.42,1.14,3.73,1.14,6.93v7.85c0,4.79,0.04,8.9,0.13,12.33c0.09,3.43,0.23,6.41,0.44,8.94
			c-0.56,0.38-1.1,0.66-1.63,0.84c-0.53,0.18-1.09,0.27-1.69,0.27c-0.51,0-1.04-0.07-1.56-0.22c-0.53-0.14-1.08-0.36-1.66-0.65
			c0.13-3.24,0.24-6.41,0.32-9.49s0.12-6.11,0.12-9.06v-1.44c0-5.68-0.18-9.16-0.55-10.45c-0.37-1.29-1.08-1.93-2.13-1.93
			c-0.65,0-1.26,0.17-1.83,0.52c-0.57,0.35-1.02,0.81-1.36,1.39c0.16,2.71,0.27,5.42,0.34,8.13s0.1,5.48,0.1,8.3
			c0,1.75-0.01,4.14-0.03,7.2c-0.02,3.05-0.03,5.23-0.03,6.53c-0.33,0.43-0.73,0.73-1.17,0.91c-0.45,0.18-1.04,0.27-1.78,0.27
			c-0.58,0-1.13-0.07-1.64-0.2c-0.51-0.13-1.05-0.36-1.61-0.67c0.25-3.98,0.42-7.88,0.54-11.71c0.11-3.82,0.17-7.59,0.17-11.3
			c0-2.73-0.06-5.03-0.18-6.89C182.65,157.79,182.46,156.01,182.19,154.31z"/>
		<path class="st2" d="M206.51,158.84h-0.2c-0.72,0-1.34-0.29-1.88-0.87c-0.54-0.58-0.81-1.21-0.81-1.88c0-0.09,0.03-0.2,0.1-0.34
			c0.07-0.13,0.19-0.31,0.37-0.54c1.28-0.76,2.59-1.5,3.96-2.21c1.36-0.71,2.75-1.4,4.16-2.05c2.79,0.54,4.73,2.05,5.8,4.55
			c1.07,2.49,1.61,8.41,1.61,17.76c0,3.11-0.08,8.24-0.23,15.4c-0.02,0.74-0.03,1.29-0.03,1.64c-0.47,0.2-0.88,0.35-1.24,0.44
			c-0.36,0.09-0.7,0.13-1.04,0.13c-0.36,0-0.73-0.05-1.12-0.17c-0.39-0.11-0.77-0.27-1.12-0.47l-0.27-1.58
			c-0.94,0.45-1.88,0.8-2.83,1.06c-0.95,0.26-1.77,0.38-2.47,0.38c-1.83,0-3.2-0.91-4.09-2.73c-0.9-1.82-1.34-4.65-1.34-8.47
			c0-4.45,0.71-7.65,2.13-9.59c1.42-1.95,3.74-2.92,6.96-2.92h1.07c-0.02-2.77-0.35-5.05-0.97-6.84s-1.38-2.68-2.25-2.68
			c-0.2,0-0.46,0.06-0.79,0.17c-0.33,0.11-0.65,0.26-0.99,0.44L206.51,158.84z M214.26,184.06c0-2.08-0.02-4.17-0.05-6.26
			c-0.03-2.09-0.08-4.22-0.15-6.39c-0.11-0.02-0.23-0.04-0.37-0.05c-0.13-0.01-0.32-0.02-0.57-0.02c-1.32,0-2.31,0.53-2.99,1.58
			s-1.01,2.61-1.01,4.66c0,2.77,0.25,4.59,0.74,5.45c0.49,0.86,1.39,1.29,2.68,1.29c0.2,0,0.59-0.05,1.17-0.17
			C213.94,184.12,214.12,184.08,214.26,184.06z"/>
		<path class="st2" d="M224.72,139.75c0.49-0.58,1.11-1.02,1.86-1.32c0.75-0.3,1.57-0.45,2.47-0.45c0.18,0,0.37,0.02,0.57,0.05
			c0.2,0.04,0.42,0.08,0.67,0.15c0.31,1.39,0.55,2.81,0.7,4.28s0.24,3.06,0.24,4.78c0,0.72-0.02,1.58-0.05,2.6
			c-0.03,1.02-0.08,2.16-0.15,3.44c1.5-0.71,2.79-1.26,3.87-1.63c1.08-0.37,1.95-0.55,2.6-0.55c1.81,0,3.12,1.17,3.92,3.51
			c0.8,2.34,1.21,6.2,1.21,11.59c0,0.83-0.06,3.87-0.17,9.14c-0.11,5.27-0.17,10.12-0.17,14.57c-0.63,0.2-1.2,0.35-1.73,0.45
			c-0.53,0.1-1,0.15-1.43,0.15c-0.65,0-1.19-0.09-1.61-0.27c-0.42-0.18-0.78-0.46-1.07-0.84c0.16-3.53,0.27-6.8,0.35-9.79
			c0.08-3,0.12-5.64,0.12-7.92v-4.33c0-4.58-0.2-7.5-0.6-8.76c-0.4-1.25-1.16-1.88-2.28-1.88c-0.63,0-1.19,0.11-1.68,0.32
			c-0.49,0.21-0.98,0.56-1.48,1.06c-0.18,2.82-0.3,6.04-0.37,9.68c-0.07,3.63-0.1,8.42-0.1,14.34v7.45c-0.56,0.22-1.1,0.39-1.61,0.5
			c-0.52,0.11-1.01,0.17-1.48,0.17c-0.4,0-0.82-0.04-1.24-0.12s-0.86-0.2-1.31-0.35c-0.02-0.85-0.04-1.78-0.05-2.79
			c-0.01-1.01-0.02-2.46-0.02-4.36c0-5.57,0.11-12.14,0.33-19.71c0.22-7.57,0.34-12.36,0.34-14.37c0-1.19-0.06-2.48-0.17-3.88
			C225.11,143.27,224.95,141.63,224.72,139.75z"/>
		<path class="st2" d="M249.58,158.84h-0.2c-0.72,0-1.34-0.29-1.88-0.87c-0.54-0.58-0.8-1.21-0.8-1.88c0-0.09,0.03-0.2,0.1-0.34
			c0.07-0.13,0.19-0.31,0.37-0.54c1.27-0.76,2.59-1.5,3.96-2.21c1.36-0.71,2.75-1.4,4.16-2.05c2.8,0.54,4.73,2.05,5.8,4.55
			c1.07,2.49,1.61,8.41,1.61,17.76c0,3.11-0.08,8.24-0.24,15.4c-0.02,0.74-0.03,1.29-0.03,1.64c-0.47,0.2-0.88,0.35-1.24,0.44
			c-0.36,0.09-0.7,0.13-1.04,0.13c-0.36,0-0.73-0.05-1.12-0.17c-0.39-0.11-0.77-0.27-1.12-0.47l-0.27-1.58
			c-0.94,0.45-1.88,0.8-2.83,1.06s-1.77,0.38-2.46,0.38c-1.83,0-3.2-0.91-4.09-2.73c-0.89-1.82-1.34-4.65-1.34-8.47
			c0-4.45,0.71-7.65,2.13-9.59s3.74-2.92,6.96-2.92h1.07c-0.02-2.77-0.35-5.05-0.97-6.84c-0.63-1.79-1.38-2.68-2.25-2.68
			c-0.2,0-0.46,0.06-0.79,0.17s-0.65,0.26-0.99,0.44L249.58,158.84z M257.33,184.06c0-2.08-0.02-4.17-0.05-6.26
			c-0.03-2.09-0.08-4.22-0.15-6.39c-0.11-0.02-0.24-0.04-0.37-0.05c-0.13-0.01-0.32-0.02-0.57-0.02c-1.32,0-2.31,0.53-2.99,1.58
			s-1.01,2.61-1.01,4.66c0,2.77,0.25,4.59,0.74,5.45c0.49,0.86,1.39,1.29,2.68,1.29c0.2,0,0.59-0.05,1.17-0.17
			C257.01,184.12,257.19,184.08,257.33,184.06z"/>
		<path class="st2" d="M267.22,154.31c0.6-0.69,1.29-1.23,2.06-1.61c0.77-0.38,1.67-0.61,2.7-0.7l0.6,1.91
			c0.92-0.38,1.86-0.79,2.82-1.22s1.95-0.9,2.95-1.39c0.2-0.04,0.41-0.08,0.62-0.1c0.21-0.02,0.46-0.04,0.75-0.04
			c1.68,0,2.9,0.71,3.66,2.13c0.76,1.42,1.14,3.73,1.14,6.93v7.85c0,4.79,0.04,8.9,0.13,12.33c0.09,3.43,0.23,6.41,0.44,8.94
			c-0.56,0.38-1.1,0.66-1.63,0.84c-0.53,0.18-1.09,0.27-1.69,0.27c-0.51,0-1.04-0.07-1.56-0.22c-0.53-0.14-1.08-0.36-1.66-0.65
			c0.13-3.24,0.24-6.41,0.32-9.49s0.12-6.11,0.12-9.06v-1.44c0-5.68-0.18-9.16-0.55-10.45c-0.37-1.29-1.08-1.93-2.13-1.93
			c-0.65,0-1.26,0.17-1.83,0.52c-0.57,0.35-1.02,0.81-1.36,1.39c0.16,2.71,0.27,5.42,0.34,8.13s0.1,5.48,0.1,8.3
			c0,1.75-0.01,4.14-0.03,7.2c-0.02,3.05-0.03,5.23-0.03,6.53c-0.33,0.43-0.73,0.73-1.17,0.91c-0.45,0.18-1.04,0.27-1.78,0.27
			c-0.58,0-1.13-0.07-1.64-0.2s-1.05-0.36-1.61-0.67c0.25-3.98,0.42-7.88,0.54-11.71c0.11-3.82,0.17-7.59,0.17-11.3
			c0-2.73-0.06-5.03-0.18-6.89S267.49,156.01,267.22,154.31z"/>
	</g>
	<g class="st1">
		<path class="st2" d="M51.09,189.66c-3.82-0.96-5.8-7.83-5.94-20.6c-0.09-7.16-0.27-12.99-0.54-17.51
			c0.56-0.27,1.08-0.46,1.58-0.59c0.49-0.12,0.97-0.18,1.44-0.18s0.96,0.07,1.46,0.22c0.5,0.15,1.08,0.4,1.73,0.75
			c-0.04,1.81-0.08,4.15-0.1,7.03c-0.02,2.87-0.03,6.04-0.03,9.51v1.51c0,5.46,0.16,9.04,0.47,10.73c0.31,1.7,0.88,2.86,1.71,3.49
			h0.4c0.34,0,0.65-0.03,0.96-0.08c0.3-0.06,0.62-0.14,0.96-0.25c0.16-1.72,0.27-3.48,0.34-5.27s0.1-3.77,0.1-5.94
			c0-3.96-0.06-7.73-0.17-11.32c-0.11-3.59-0.28-7.03-0.5-10.32c0.47-0.2,0.94-0.35,1.41-0.45c0.47-0.1,0.94-0.15,1.41-0.15
			c0.54,0,1.08,0.07,1.64,0.22c0.56,0.15,1.17,0.39,1.84,0.72v2.62c0,0.25-0.01,1-0.03,2.25c-0.11,6.84-0.17,13.74-0.17,20.7
			c0,3.29,0.03,5.78,0.08,7.48c0.06,1.7,0.14,3.3,0.25,4.8c-0.45,0.31-0.94,0.53-1.49,0.65c-0.55,0.12-1.29,0.18-2.23,0.18h-1.01
			c-0.29-0.49-0.53-0.94-0.7-1.34c-0.18-0.4-0.31-0.77-0.4-1.11c-0.76,0.72-1.49,1.28-2.2,1.69s-1.28,0.62-1.73,0.62
			c-0.02,0-0.1-0.01-0.22-0.03S51.18,189.66,51.09,189.66z"/>
		<path class="st2" d="M79.34,183.42c0.72,0.49,1.24,1.01,1.56,1.56c0.32,0.55,0.49,1.15,0.49,1.79c0,0.33-0.08,0.85-0.23,1.54
			c-0.02,0.09-0.03,0.15-0.03,0.17c-1.16,0.49-2.28,0.84-3.34,1.06c-1.06,0.21-2.15,0.32-3.27,0.32c-1.16,0-2.53-0.13-4.09-0.39
			s-3.33-0.65-5.3-1.19c-0.2-0.54-0.36-1.07-0.47-1.61c-0.11-0.54-0.17-1.05-0.17-1.54c0-0.29,0-0.51,0.02-0.67
			c0.01-0.16,0.03-0.29,0.05-0.4l8.75-27.84c-0.34,0.05-0.67,0.08-0.99,0.1c-0.32,0.02-0.71,0.03-1.16,0.03
			c-0.69,0-1.48-0.06-2.35-0.17c-0.87-0.11-1.86-0.29-2.95-0.54c-0.18-0.71-0.31-1.37-0.4-1.96c-0.09-0.59-0.13-1.1-0.13-1.53
			c0-0.29,0.08-0.56,0.23-0.8c0.16-0.25,0.4-0.48,0.74-0.71c0.72,0.25,1.47,0.42,2.26,0.52s1.73,0.15,2.8,0.15
			c1.12,0,2.15-0.06,3.1-0.17c0.95-0.11,1.82-0.28,2.6-0.5c0.67,0.34,1.19,0.8,1.54,1.39c0.36,0.59,0.63,1.44,0.81,2.53
			c-2.06,6.64-3.77,12.27-5.15,16.89c-1.38,4.62-2.57,8.76-3.57,12.43c0.49,0.16,0.99,0.27,1.51,0.35c0.51,0.08,1.02,0.12,1.51,0.12
			c0.74,0,1.59-0.08,2.55-0.24C77.21,183.97,78.24,183.73,79.34,183.42z"/>
		<path class="st2" d="M84.64,140.55c0.54-0.13,1.07-0.23,1.59-0.3c0.52-0.07,1.02-0.1,1.49-0.1c0.25,0,0.59,0.04,1.04,0.13
			c0.45,0.09,0.95,0.22,1.51,0.4c0.2,0.63,0.35,1.16,0.45,1.59c0.1,0.44,0.15,0.8,0.15,1.09c0,0.29-0.05,0.63-0.15,1.01
			c-0.1,0.38-0.27,0.88-0.52,1.51c-0.6,0.18-1.15,0.31-1.64,0.39c-0.49,0.08-0.91,0.12-1.24,0.12c-0.27,0-0.61-0.04-1.02-0.12
			c-0.41-0.08-0.94-0.2-1.59-0.35c-0.18-0.65-0.31-1.21-0.4-1.68s-0.13-0.87-0.13-1.21c0-0.22,0.03-0.49,0.08-0.8
			C84.31,141.91,84.43,141.35,84.64,140.55z M85.11,189.46c-0.16-3.98-0.27-7.59-0.35-10.83c-0.08-3.24-0.12-6.32-0.12-9.22
			c0-1.9,0.03-4.18,0.1-6.84c0.07-2.66,0.19-6.45,0.37-11.37c0.42-0.13,0.84-0.23,1.26-0.3c0.41-0.07,0.82-0.1,1.22-0.1
			c0.42,0,0.83,0.02,1.21,0.07c0.38,0.05,0.77,0.11,1.17,0.2c0.13,4.81,0.23,9.38,0.29,13.7s0.08,8.52,0.08,12.56
			c0,1.3-0.01,3.24-0.03,5.82s-0.03,4.5-0.03,5.75c-0.51,0.36-1.03,0.62-1.54,0.79c-0.52,0.17-1.03,0.25-1.54,0.25
			c-0.29,0-0.58-0.03-0.87-0.1C86.02,189.76,85.62,189.63,85.11,189.46z"/>
	</g>
	<path class="st0" d="M37.48,140.34c-1.56-0.69-3.03-1.01-4.42-0.99c-1.38,0.03-3.07,0.37-5.04,1.02c-1.61,0.53-3.15,1.45-4.64,2.75
		c-1.48,1.3-2.48,2.92-3,4.82c-0.54,1.9-0.72,3.56-0.55,4.99c0.18,1.43,0.56,2.87,1.19,4.37c0.62,1.48,1.59,2.99,2.91,4.53
		c1.32,1.54,3.18,3.3,5.56,5.28c0.87,0.71,1.71,1.43,2.51,2.13c4.58,4.23,4.94,9.22,4.94,9.22c0.06,2.54-0.14,4.55-0.59,6.06
		c-0.45,1.49-1.22,2.79-2.31,3.9c-1.08,1.1-2.2,1.91-3.37,2.42c-1.17,0.52-2.39,0.78-3.69,0.77c-1.29-0.01-2.69-0.44-4.16-1.29
		c-1.49-0.85-2.58-1.9-3.29-3.15c-0.72-1.26-0.98-2.7-0.78-4.33c0.2-1.65,0.72-3,1.56-4.06c0.85-1.05,1.81-1.78,2.92-2.17
		c1.1-0.39,2.09-0.36,2.97,0.05c0.88,0.42,1.47,0.96,1.8,1.59c0.32,0.64,0.28,1.3-0.13,1.99c-0.42,0.69-0.84,1.09-1.27,1.21
		s-0.7,0.4-0.81,0.83s0.18,0.67,0.9,0.73c0.72,0.05,1.45-0.21,2.19-0.81c0.74-0.58,1.17-1.38,1.29-2.38
		c0.11-1.01-0.14-1.95-0.77-2.83c-0.62-0.88-1.44-1.54-2.44-1.96c-1-0.43-2.11-0.63-3.32-0.61c-1.21,0.01-2.39,0.34-3.51,0.99
		c-1.13,0.64-2.44,1.66-3.69,4.09c-0.9,2.38-1.07,4.37-0.51,5.98c0.57,1.61,1.33,2.92,2.3,3.91c0.97,1,2.35,2,4.18,3
		c1.48,0.82,3.21,1.32,5.18,1.51c1.96,0.19,3.82-0.16,5.59-1.07c1.74-0.91,3.08-1.92,4.01-3.01c0.92-1.1,1.89-2.69,2.56-4.16
		c0.67-1.46,1.01-2.7,1.37-4.7c1.27-6.93-2.25-10.76-2.25-10.76c-0.97-1.48-2.24-3-4.48-4.69c-2.16-1.64-4.17-3.34-6.08-5.02
		c-1.9-1.69-3.25-3.2-4.03-4.56c-0.79-1.35-1.22-2.8-1.29-4.35c-0.08-1.55,0.11-2.92,0.53-4.13c0.41-1.21,1.06-2.28,1.95-3.22
		c0.89-0.95,2.15-1.67,3.78-2.17s3.15-0.59,4.54-0.25c1.42,0.33,2.64,1.13,3.71,2.39s1.71,2.56,1.89,3.9
		c0.21,1.35,0.07,2.55-0.39,3.63c-0.47,1.07-1.17,1.78-2.07,2.14c-0.9,0.35-1.71,0.43-2.39,0.23c-0.69-0.19-1.15-0.68-1.38-1.45
		c-0.22-0.77-0.22-1.37-0.02-1.76c0.2-0.4,0.18-0.78-0.05-1.16c-0.24-0.37-0.62-0.31-1.16,0.17c-0.54,0.49-0.85,1.2-0.91,2.15
		c-0.07,0.94,0.22,1.8,0.88,2.57c0.65,0.77,1.51,1.22,2.59,1.37c1.07,0.13,2.1-0.02,3.09-0.46c1-0.44,1.89-1.11,2.71-2
		c0.82-0.9,1.38-1.98,1.67-3.25s0.41-3.14-0.49-5.48C40.4,142.51,39.06,141.03,37.48,140.34z"/>
</g>
<g class="st1">
	<path class="st3" d="M33.85,208.98h7.94c-0.09,2-0.74,3.62-1.95,4.86c-1.21,1.24-2.74,1.86-4.6,1.86c-0.96,0-1.85-0.18-2.67-0.55
		s-1.54-0.92-2.19-1.64c-0.55-0.6-0.96-1.29-1.24-2.06c-0.28-0.77-0.42-1.59-0.42-2.47c0-0.9,0.17-1.75,0.51-2.55
		s0.84-1.53,1.5-2.17c0.62-0.62,1.32-1.09,2.09-1.39c0.77-0.31,1.62-0.46,2.56-0.46c1.3,0,2.44,0.3,3.42,0.91
		c0.98,0.61,1.72,1.47,2.22,2.59h-2.29c-0.42-0.54-0.93-0.96-1.52-1.23c-0.59-0.28-1.24-0.41-1.97-0.41c-0.61,0-1.18,0.11-1.73,0.34
		c-0.55,0.23-1.03,0.56-1.46,0.99c-0.44,0.45-0.79,0.98-1.03,1.57c-0.25,0.6-0.37,1.21-0.37,1.83c0,0.67,0.11,1.3,0.34,1.89
		c0.22,0.6,0.54,1.11,0.96,1.54c0.44,0.46,0.95,0.81,1.53,1.06c0.58,0.25,1.17,0.38,1.77,0.38c0.98,0,1.84-0.26,2.58-0.78
		c0.75-0.52,1.36-1.29,1.84-2.3h-5.82V208.98z"/>
	<path class="st3" d="M54.33,215.44h-1.85v-12.8h3.69c1.54,0,2.71,0.35,3.52,1.06s1.21,1.73,1.21,3.08c0,1.04-0.34,1.92-1.02,2.61
		c-0.68,0.7-1.55,1.08-2.61,1.13l3.63,4.91h-2.32l-4.25-5.94V215.44z M54.33,209.29h0.95c1.28,0,2.24-0.21,2.87-0.62
		s0.94-1.05,0.94-1.9c0-0.83-0.27-1.43-0.81-1.82s-1.39-0.58-2.56-0.58h-1.39V209.29z"/>
	<path class="st3" d="M73.37,211.72l-1.44,3.73h-1.96l5-12.8h1.8l5,12.8h-2.03l-1.41-3.73H73.37z M77.67,209.92l-1.8-4.86
		l-1.84,4.86H77.67z"/>
	<path class="st3" d="M93.31,215.44h-1.84v-12.8h2.97c0.84,0,1.48,0.04,1.91,0.12s0.82,0.22,1.15,0.41
		c0.53,0.31,0.96,0.75,1.27,1.33c0.32,0.58,0.47,1.2,0.47,1.88c0,1.19-0.4,2.14-1.2,2.84s-1.89,1.06-3.26,1.06h-1.48V215.44z
		 M93.31,208.59h1.34c0.96,0,1.65-0.17,2.08-0.5s0.65-0.86,0.65-1.59s-0.22-1.27-0.65-1.62s-1.11-0.53-2.01-0.53h-1.41V208.59z"/>
	<path class="st3" d="M111.59,215.44h-1.85v-12.8h1.85v5.43h5.22v-5.43h1.85v12.8h-1.85v-5.55h-5.22V215.44z"/>
	<path class="st3" d="M131.75,215.44h-1.85v-12.8h1.85V215.44z"/>
	<path class="st3" d="M154.63,212.24c-0.56,1.12-1.33,1.98-2.31,2.57s-2.12,0.89-3.41,0.89c-0.96,0-1.85-0.18-2.66-0.55
		s-1.54-0.92-2.18-1.64c-0.54-0.6-0.96-1.29-1.24-2.06c-0.28-0.77-0.42-1.59-0.42-2.47c0-0.89,0.17-1.74,0.51-2.54
		c0.34-0.8,0.84-1.53,1.49-2.18c0.62-0.61,1.31-1.07,2.07-1.38c0.76-0.31,1.57-0.47,2.45-0.47c1.31,0,2.47,0.31,3.46,0.93
		s1.74,1.5,2.25,2.64h-2.18c-0.41-0.57-0.91-1-1.51-1.28s-1.27-0.43-2.03-0.43c-0.6,0-1.18,0.11-1.72,0.34s-1.03,0.56-1.45,0.99
		c-0.44,0.45-0.78,0.98-1.03,1.57s-0.37,1.21-0.37,1.83c0,0.67,0.11,1.3,0.33,1.89c0.22,0.6,0.54,1.11,0.96,1.54
		c0.44,0.46,0.95,0.81,1.52,1.06s1.16,0.38,1.76,0.38c0.73,0,1.39-0.14,1.98-0.42c0.59-0.28,1.07-0.68,1.45-1.21H154.63z"/>
	<path class="st3" d="M181.4,211.72l-1.44,3.73H178l5-12.8h1.8l5,12.8h-2.03l-1.41-3.73H181.4z M185.69,209.92l-1.8-4.86l-1.84,4.86
		H185.69z"/>
	<path class="st3" d="M201.36,215.44h-1.85v-12.8h3.69c1.54,0,2.71,0.35,3.52,1.06s1.21,1.73,1.21,3.08c0,1.04-0.34,1.92-1.01,2.61
		c-0.68,0.7-1.55,1.08-2.62,1.13l3.63,4.91h-2.32l-4.25-5.94V215.44z M201.36,209.29h0.95c1.28,0,2.24-0.21,2.87-0.62
		s0.94-1.05,0.94-1.9c0-0.83-0.27-1.43-0.81-1.82s-1.39-0.58-2.56-0.58h-1.39V209.29z"/>
	<path class="st3" d="M221.94,215.44h-1.85v-11.07h-2.39v-1.72h6.64v1.72h-2.39V215.44z"/>
	<path class="st3" d="M236.43,215.44h-1.85v-12.8h1.85V215.44z"/>
	<path class="st3" d="M246.99,211.75h1.66c0.03,0.66,0.23,1.19,0.59,1.59c0.36,0.4,0.83,0.59,1.42,0.59c0.64,0,1.15-0.2,1.53-0.59
		c0.38-0.39,0.58-0.92,0.58-1.59c0-0.58-0.14-1.03-0.42-1.34s-0.87-0.61-1.77-0.89c-0.05-0.01-0.13-0.03-0.24-0.06
		c-1.07-0.29-1.85-0.76-2.33-1.42c-0.22-0.29-0.38-0.59-0.49-0.92c-0.11-0.33-0.16-0.67-0.16-1.04c0-1.1,0.33-1.98,0.98-2.66
		c0.65-0.68,1.5-1.01,2.56-1.01c0.98,0,1.77,0.3,2.37,0.91c0.6,0.61,0.93,1.44,1,2.49h-1.73c-0.03-0.51-0.2-0.92-0.51-1.23
		s-0.71-0.47-1.18-0.47c-0.51,0-0.92,0.17-1.24,0.52s-0.48,0.8-0.48,1.35c0,0.19,0.03,0.38,0.09,0.54s0.15,0.33,0.27,0.47
		c0.25,0.3,0.79,0.56,1.62,0.77c0.38,0.1,0.67,0.18,0.88,0.25c0.84,0.32,1.48,0.78,1.92,1.38s0.65,1.33,0.65,2.17
		c0,1.24-0.35,2.23-1.05,2.99s-1.63,1.13-2.79,1.13c-1.09,0-1.98-0.36-2.66-1.08S247,212.94,246.99,211.75z"/>
	<path class="st3" d="M268.49,215.44h-1.85v-11.07h-2.39v-1.72h6.64v1.72h-2.39V215.44z"/>
</g>
<g>
	<g>
		<path class="st4" d="M178.22,44.01c-0.8,0-1.59,0.04-2.38,0.1c0.04-0.52,0.05-1.05,0.06-1.58c0.06-15.01-12.05-27.23-27.06-27.3
			c-15.01-0.07-27.23,12.05-27.3,27.06c0,0.94,0.04,1.88,0.13,2.8c-1.31-0.2-2.66-0.31-4.03-0.32
			c-15.01-0.07-27.23,12.05-27.3,27.06s12.05,27.23,27.06,27.29c1.16,0.01,2.3-0.06,3.43-0.2c-0.04,0.56-0.06,1.12-0.06,1.68
			c-0.06,15.01,12.05,27.24,27.06,27.3c15.01,0.07,27.23-12.05,27.3-27.06c0-0.9-0.04-1.79-0.12-2.67c0.97,0.11,1.97,0.18,2.97,0.18
			c15.01,0.07,27.23-12.04,27.3-27.05C205.35,56.29,193.23,44.07,178.22,44.01z"/>
	</g>
	<path class="st5" d="M178.22,44.01c-0.8,0-1.59,0.04-2.38,0.1c0.04-0.52,0.05-1.05,0.06-1.58c0.06-15.01-12.05-27.23-27.06-27.3
		c-15.01-0.07-27.23,12.05-27.3,27.06c0,0.94,0.04,1.88,0.13,2.8c-1.31-0.2-2.66-0.31-4.03-0.32c-15.01-0.07-27.23,12.05-27.3,27.06
		s12.05,27.23,27.06,27.29c1.16,0.01,2.3-0.06,3.43-0.2c-0.04,0.56-0.06,1.12-0.06,1.68c-0.06,15.01,12.05,27.24,27.06,27.3
		c15.01,0.07,27.23-12.05,27.3-27.06c0-0.9-0.04-1.79-0.12-2.67c0.97,0.11,1.97,0.18,2.97,0.18c15.01,0.07,27.23-12.04,27.3-27.05
		C205.35,56.29,193.23,44.07,178.22,44.01z"/>
	<path class="st3" d="M178.22,44.01c-0.8,0-1.59,0.04-2.38,0.1c0.04-0.52,0.05-1.05,0.06-1.58c0.06-15.01-12.05-27.23-27.06-27.3
		c-15.01-0.07-27.23,12.05-27.3,27.06c0,0.94,0.04,1.88,0.13,2.8c-1.31-0.2-2.66-0.31-4.03-0.32c-15.01-0.07-27.23,12.05-27.3,27.06
		s12.05,27.23,27.06,27.29c1.16,0.01,2.3-0.06,3.43-0.2c-0.04,0.56-0.06,1.12-0.06,1.68c-0.06,15.01,12.05,27.24,27.06,27.3
		c15.01,0.07,27.23-12.05,27.3-27.06c0-0.9-0.04-1.79-0.12-2.67c0.97,0.11,1.97,0.18,2.97,0.18c15.01,0.07,27.23-12.04,27.3-27.05
		C205.35,56.29,193.23,44.07,178.22,44.01z"/>
	<path class="st6" d="M158.55,93.49c0-0.74,1.04-16.61,1.48-17.79c0.44-1.19,5.78-11.71,6.52-11.86s6.82-2.67,6.82-2.67l8.3-1.93
		c0,0-1.93-3.26-2.97-3.71c-1.04-0.44-15.72-2.08-16.9-2.08c-1.19,0-14.23-0.15-14.23-0.15s-9.64-5.78-9.64-6.23
		s-1.63,2.52-1.63,2.52l-1.93,21.2l-7.86,9.04l-10.82,3.71c0,0,3.26,2.97,3.86,3.41s13.79,3.26,13.79,3.26s9.64-2.52,10.23-2.52
		c0.59,0,7.41,1.63,7.41,1.63l3.71,4.15h3.86V93.49z"/>
	<g>
		<path class="st7" d="M193.25,65.58c-0.77-1.81-1.99-3.63-3.63-5.49c-1.53-1.72-2.89-2.73-5.42-4.73l0.02,0.03
			c-4.62-3.06-11.9-4.13-11.9-4.13c-3.46-0.35-4.87-0.29-7.86-0.04c-3.26,0.27-6.4,0.82-9.47,1.06c-3.07,0.25-5.53,0.15-7.37-0.3
			c-1.84-0.45-3.47-1.3-4.88-2.54c-1.4-1.24-2.45-2.55-3.14-3.92c-0.71-1.38-1.09-2.86-1.17-4.43c-0.07-1.57,0.36-3.28,1.3-5.12
			c0.92-1.85,2.13-3.24,3.61-4.18c1.47-0.95,3.21-1.34,5.2-1.21c2,0.14,3.67,0.68,5.01,1.63c1.33,0.95,2.27,2.08,2.81,3.39
			c0.55,1.31,0.59,2.5,0.14,3.59c-0.46,1.09-0.87,1.81-1.62,2.24c-0.75,0.44-1.66,0.56-2.62,0.36c-0.45-0.1-1.33-0.72-1.21-1.47
			c0.01-0.01,0.03-0.02,0.04-0.03c0.16-0.18,0.26-0.4,0.31-0.66c0.11-0.53-0.27-0.8-1.14-0.83c-0.87-0.02-1.74,0.35-2.59,1.11
			c-0.86,0.75-1.33,1.75-1.42,2.97c-0.08,1.22,0.3,2.35,1.12,3.37s1.85,1.76,3.08,2.21c1.23,0.45,2.58,0.62,4.05,0.53
			c1.45-0.09,2.86-0.57,4.19-1.43c1.32-0.85,3.49-2.52,4.41-5.91c0.52-2.09,0.64-4.13,0.03-6.18c-0.59-1.98-1.4-3.51-2.46-4.63
			c-1.15-1.22-4.67-5.03-12.19-5.18c-2.39-0.05-4.61,0.44-6.68,1.66s-3.62,2.51-4.67,3.9c-1.05,1.39-1.93,2.99-2.63,4.8
			c-0.72,1.82-1.14,3.95-1.28,6.41c-0.14,2.47,0.17,4.21,0.6,7.92c2.06,17.9-4.83,24.48-4.83,24.48c-2.08,2.28-3.89,3.98-5.6,4.79
			c-2.38,1.13-4.23,1.48-5.86,1.66c-1.76,0.08-4.2-0.15-5.67-0.63c-1.48-0.49-2.8-1.27-3.98-2.34c-1.16-1.07-2.07-2.59-2.71-4.58
			c-0.65-1.97-0.77-3.82-0.39-5.55c0.38-1.71,1.34-3.23,2.85-4.56c1.53-1.32,3.11-2.12,4.74-2.39c1.63-0.26,3.1-0.12,4.41,0.43
			c1.32,0.55,2.19,1.37,2.65,2.47c0.45,1.1,0.67,1.91,0.43,2.75c-0.23,0.85-0.79,1.58-1.61,2.11c-0.39,0.25-1.46,0.43-1.91-0.2
			c0-0.01,0.01-0.03,0.01-0.04c-0.02-0.24-0.1-0.47-0.25-0.69c-0.29-0.46-0.76-0.39-1.4,0.22c-0.64,0.6-1,1.48-1.07,2.63
			c-0.08,1.15,0.29,2.19,1.1,3.13c0.81,0.92,1.88,1.46,3.19,1.62c1.31,0.15,2.57-0.06,3.77-0.61c1.19-0.55,2.28-1.39,3.26-2.5
			c0.98-1.1,1.63-2.44,1.98-4c0.34-1.55,0.7-4.28-1.04-7.35c-1.11-1.86-2.48-3.41-4.37-4.44c-1.83-1-3.49-1.51-5.05-1.56
			c-1.69-0.05-6.9-0.28-12.38,4.95c-1.74,1.66-2.97,3.59-3.59,5.92c-0.61,2.34-0.8,4.36-0.57,6.1c0.23,1.73,0.75,3.5,1.53,5.3
			s1.99,3.63,3.64,5.48c1.65,1.86,3.45,3.52,6.04,5.23l0.01-0.01c5.69,3.03,12.06,3.56,12.06,3.56c2.16,0.09,4.87,0.29,7.87,0.04
			c3.26-0.27,6.4-0.82,9.47-1.06c3.07-0.25,5.53-0.15,7.37,0.3c1.84,0.45,3.47,1.3,4.88,2.54c1.4,1.24,2.45,2.55,3.15,3.92
			c0.7,1.38,1.08,2.86,1.16,4.42c0.07,1.57-0.35,3.28-1.29,5.13c-0.93,1.85-2.14,3.23-3.61,4.18c-1.46,0.94-3.2,1.34-5.2,1.22
			c-2-0.14-3.67-0.68-5.01-1.64c-1.33-0.96-2.27-2.08-2.81-3.39c-0.55-1.31-0.58-2.5-0.13-3.59c0.46-1.09,0.87-1.81,1.62-2.24
			s1.66-0.56,2.62-0.36c0.45,0.1,1.33,0.72,1.2,1.47c-0.01,0.01-0.03,0.02-0.04,0.03c-0.16,0.18-0.26,0.4-0.31,0.66
			c-0.11,0.53,0.27,0.8,1.14,0.83c0.87,0.02,1.74-0.34,2.59-1.11c0.86-0.75,1.33-1.75,1.41-2.97c0.08-1.22-0.3-2.35-1.12-3.38
			c-0.82-1.02-1.85-1.76-3.08-2.21c-1.23-0.45-2.58-0.62-4.05-0.53c-1.46,0.09-2.86,0.57-4.19,1.43c-1.33,0.85-3.49,2.52-4.41,5.91
			c-0.52,2.09-0.64,4.13-0.03,6.18c0.59,1.98,1.4,3.51,2.46,4.63c1.15,1.22,4.67,5.03,12.19,5.18c2.39,0.05,4.61-0.45,6.67-1.66
			c2.07-1.21,3.62-2.51,4.67-3.89c1.05-1.39,1.93-2.99,2.63-4.8c0.72-1.81,1.14-3.95,1.28-6.41c0.13-2.47-0.17-4.21-0.6-7.92
			c-2.06-17.9,4.83-24.48,4.83-24.48c2.08-2.28,3.94-3.87,5.6-4.79c1.29-0.72,2.65-1.15,4.06-1.34l-0.01,0.01
			c0.12-0.03,0.24-0.04,0.36-0.06c0.05-0.01,0.09-0.02,0.13-0.02l0,0c0.38-0.06,0.75-0.11,1.14-0.14c1.88-0.11,3.56,0.08,5.03,0.57
			c1.48,0.48,2.81,1.27,3.98,2.34c1.17,1.07,2.08,2.59,2.71,4.58c0.65,1.98,0.78,3.82,0.39,5.55c-0.38,1.71-1.34,3.23-2.85,4.56
			c-1.53,1.32-3.1,2.12-4.74,2.39c-1.63,0.26-3.1,0.12-4.41-0.42c-1.32-0.54-2.2-1.38-2.65-2.47c-0.45-1.1-0.67-1.91-0.43-2.75
			c0.23-0.84,0.79-1.58,1.61-2.11c0.4-0.25,1.47-0.43,1.91,0.2c0,0.02-0.01,0.03,0,0.04c0.02,0.24,0.1,0.47,0.25,0.69
			c0.29,0.46,0.76,0.38,1.4-0.22s1-1.48,1.06-2.62c0.09-1.15-0.29-2.19-1.1-3.13c-0.8-0.92-1.88-1.47-3.19-1.62
			s-2.57,0.06-3.77,0.61s-2.28,1.39-3.27,2.5c-0.98,1.1-1.63,2.44-1.97,3.99c-0.35,1.55-0.71,4.28,1.04,7.35
			c1.11,1.86,2.47,3.4,4.37,4.43c1.83,1,3.49,1.51,5.05,1.56c1.69,0.05,6.91,0.28,12.38-4.95c1.74-1.66,2.97-3.59,3.59-5.93
			c0.61-2.34,0.8-4.37,0.57-6.1C194.55,69.15,194.04,67.37,193.25,65.58z M175.88,58.07c-1.74,0.18-3.91,0.74-5.73,1.47
			c-3.15,1.24-4.33,2.35-5.16,2.95c-7.62,5.57-8.68,18.24-8.68,18.24c-0.09,2.16-0.29,4.87-0.05,7.87c0.1,1.19,0.24,2.36,0.38,3.52
			c-0.77-0.99-1.56-1.8-2.38-2.43c-1.39-1.05-2.99-1.93-4.8-2.63c-1.81-0.72-3.95-1.14-6.41-1.28c-2.46-0.14-4.21,0.17-7.92,0.6
			c-8.65,0.99-14.65-0.1-18.55-1.5c1.09,0.15,2.1,0.19,3.03,0.09c1.73-0.18,3.91-0.74,5.73-1.46c3.15-1.24,4.33-2.34,5.16-2.95
			c7.63-5.57,8.68-18.24,8.68-18.24c0.09-2.16,0.29-4.87,0.04-7.86c-0.1-1.19-0.24-2.36-0.38-3.52c0.77,0.99,1.56,1.8,2.38,2.43
			c1.39,1.05,2.99,1.93,4.8,2.63c1.82,0.71,3.95,1.14,6.41,1.28c2.47,0.14,4.21-0.17,7.92-0.6c8.65-0.99,14.65,0.1,18.55,1.5
			C177.82,58.01,176.81,57.98,175.88,58.07z"/>
		<path class="st8" d="M121.41,63.31c0.56,1.2,0.76,2.46,0.61,3.77c-0.15,1.32-0.69,2.39-1.62,3.19c-0.94,0.82-1.98,1.19-3.13,1.1
			c-0.43-0.02-0.82-0.09-1.18-0.2c0.03,0.14,0.06,0.28,0.11,0.44c0.27,0.94,0.85,1.53,1.7,1.76c0.84,0.23,1.82,0.12,2.92-0.33
			c1.1-0.45,2.17-1.57,2.72-2.89c0.55-1.31,0.62-2.71,0.36-4.34c-0.27-1.64-1.02-3.25-2.35-4.78c-1.32-1.51-3.06-2.26-4.77-2.63
			c-0.44-0.1-0.89-0.16-1.35-0.2c1.34,0.37,2.51,0.98,3.48,1.85C120.02,61.03,120.86,62.11,121.41,63.31z"/>
		<path class="st8" d="M156.27,43.11c-1.03,0.82-2.15,1.2-3.37,1.12c-1.23-0.09-2.22-0.55-2.98-1.42c-0.29-0.32-0.52-0.64-0.69-0.96
			c-0.07,0.12-0.15,0.24-0.23,0.38c-0.47,0.85-0.47,1.67-0.03,2.42c0.43,0.75,1.2,1.36,2.29,1.81c1.09,0.45,2.63,0.41,3.94-0.14
			c1.31-0.54,2.33-1.47,3.29-2.8c0.95-1.34,1.56-3.01,1.69-5.01c0.12-1.99-0.57-3.73-1.52-5.2c-0.24-0.38-0.51-0.74-0.81-1.08
			c0.69,1.2,1.08,2.45,1.16,3.74c0.09,1.47-0.08,2.82-0.53,4.05C158.03,41.26,157.29,42.3,156.27,43.11z"/>
		<path class="st8" d="M139.23,99.92c1.03-0.82,2.16-1.2,3.37-1.11c1.23,0.08,2.22,0.55,2.97,1.41c0.29,0.32,0.52,0.64,0.69,0.97
			c0.08-0.12,0.15-0.24,0.23-0.38c0.47-0.86,0.47-1.68,0.03-2.42c-0.43-0.75-1.2-1.36-2.28-1.82c-1.09-0.45-2.63-0.41-3.94,0.14
			c-1.31,0.54-2.33,1.47-3.29,2.8c-0.96,1.34-1.56,3.01-1.69,5.01c-0.13,1.99,0.57,3.73,1.52,5.19c0.24,0.38,0.51,0.74,0.81,1.08
			c-0.69-1.2-1.08-2.45-1.16-3.74c-0.09-1.47,0.08-2.82,0.52-4.05C137.47,101.77,138.21,100.74,139.23,99.92z"/>
		<path class="st8" d="M173.27,79.76c-0.55-1.2-0.76-2.46-0.61-3.77s0.69-2.38,1.61-3.19c0.94-0.81,1.98-1.18,3.13-1.1
			c0.43,0.02,0.83,0.09,1.18,0.2c-0.03-0.14-0.06-0.28-0.11-0.44c-0.27-0.94-0.85-1.53-1.7-1.75c-0.84-0.24-1.82-0.12-2.92,0.32
			c-1.1,0.46-2.17,1.58-2.72,2.9s-0.62,2.71-0.36,4.34c0.27,1.64,1.03,3.25,2.35,4.78c1.33,1.51,3.06,2.26,4.77,2.63
			c0.44,0.1,0.89,0.16,1.35,0.19c-1.34-0.36-2.51-0.98-3.48-1.84C174.66,82.04,173.82,80.96,173.27,79.76z"/>
	</g>
</g>
</svg>
